<svg width="372" height="372" viewBox="0 0 372 372" fill="none" xmlns="http://www.w3.org/2000/svg">
<path d="M372 284.505H0V284.691H372V284.505Z" fill="#EBEBEB"/>
<path d="M63.6716 296.477H39.0303V296.663H63.6716V296.477Z" fill="#EBEBEB"/>
<path d="M133.793 298.5H127.328V298.686H133.793V298.5Z" fill="#EBEBEB"/>
<path d="M83.328 289.572H64.4155V289.758H83.328V289.572Z" fill="#EBEBEB"/>
<path d="M334.725 290.822H313.968V291.008H334.725V290.822Z" fill="#EBEBEB"/>
<path d="M307.347 290.822H291.254V291.008H307.347V290.822Z" fill="#EBEBEB"/>
<path d="M244.523 293.962H206.244V294.148H244.523V293.962Z" fill="#EBEBEB"/>
<path d="M176.328 251.323H32.669C31.5436 251.321 30.465 250.873 29.6699 250.076C28.8748 249.28 28.4282 248.2 28.4282 247.075V45.131C28.438 44.012 28.8889 42.9421 29.6829 42.1536C30.477 41.3652 31.55 40.9218 32.669 40.9199H176.328C177.455 40.9199 178.535 41.3675 179.332 42.1642C180.129 42.9609 180.576 44.0415 180.576 45.1682V247.075C180.576 248.202 180.129 249.282 179.332 250.079C178.535 250.876 177.455 251.323 176.328 251.323ZM32.669 41.0687C31.5929 41.0707 30.5616 41.4995 29.8014 42.2612C29.0412 43.0228 28.6142 44.0549 28.6142 45.131V247.075C28.6142 248.151 29.0412 249.183 29.8014 249.945C30.5616 250.706 31.5929 251.135 32.669 251.137H176.328C177.405 251.135 178.437 250.707 179.198 249.945C179.96 249.184 180.388 248.152 180.39 247.075V45.131C180.388 44.0542 179.96 43.0221 179.198 42.2607C178.437 41.4993 177.405 41.0707 176.328 41.0687H32.669Z" fill="#EBEBEB"/>
<path d="M337.263 251.323H193.596C192.47 251.321 191.391 250.873 190.595 250.077C189.798 249.28 189.35 248.201 189.348 247.075V45.131C189.36 44.0113 189.812 42.9414 190.608 42.1532C191.403 41.3649 192.477 40.9218 193.596 40.9199H337.263C338.38 40.9238 339.452 41.368 340.244 42.1562C341.036 42.9445 341.486 44.0133 341.496 45.131V247.075C341.496 248.199 341.051 249.277 340.257 250.074C339.464 250.87 338.387 251.319 337.263 251.323ZM193.596 41.0687C192.52 41.0707 191.488 41.4993 190.726 42.2607C189.965 43.0221 189.536 44.0542 189.534 45.131V247.075C189.536 248.152 189.965 249.184 190.726 249.945C191.488 250.707 192.52 251.135 193.596 251.137H337.263C338.34 251.135 339.372 250.707 340.133 249.945C340.894 249.184 341.323 248.152 341.325 247.075V45.131C341.323 44.0542 340.894 43.0221 340.133 42.2607C339.372 41.4993 338.34 41.0707 337.263 41.0687H193.596Z" fill="#EBEBEB"/>
<path d="M52.0947 131.636H55.6659L57.9351 98.7734H53.2926L52.0947 131.636Z" fill="#E6E6E6"/>
<path d="M54.1704 131.636H57.7416L60.0108 98.7734H56.4322L54.1704 131.636Z" fill="#F5F5F5"/>
<path d="M144.664 131.636H148.235L150.504 98.7734H145.861L144.664 131.636Z" fill="#E6E6E6"/>
<path d="M146.739 131.636H150.31L152.58 98.7734H149.001L146.739 131.636Z" fill="#F5F5F5"/>
<path d="M43.256 98.7734H67.0938V93.2009H43.256V98.7734Z" fill="#E6E6E6"/>
<path d="M165.756 93.2007H67.0938V98.7732H165.756V93.2007Z" fill="#F5F5F5"/>
<path d="M43.256 123.221H67.0938V117.649H43.256V123.221Z" fill="#E6E6E6"/>
<path d="M165.756 117.641H67.0938V123.214H165.756V117.641Z" fill="#F5F5F5"/>
<path d="M112.589 62.7339H83.6403C79.8395 62.7339 76.7583 65.8151 76.7583 69.6159V86.3112C76.7583 90.1121 79.8395 93.1932 83.6403 93.1932H112.589C116.39 93.1932 119.471 90.1121 119.471 86.3112V69.6159C119.471 65.8151 116.39 62.7339 112.589 62.7339Z" fill="#E0E0E0"/>
<path d="M114.896 89.8529H85.9394C84.0168 89.8509 82.1737 89.0858 80.8149 87.7256C79.4561 86.3654 78.6929 84.5215 78.6929 82.5989V65.8961C78.6948 63.9741 79.4587 62.1313 80.8171 60.7715C82.1754 59.4118 84.0174 58.646 85.9394 58.6421H114.896C116.819 58.6441 118.663 59.409 120.023 60.7689C121.383 62.1289 122.148 63.9728 122.15 65.8961V82.584C122.151 83.5376 121.964 84.482 121.6 85.3634C121.236 86.2448 120.702 87.0458 120.028 87.7208C119.355 88.3958 118.555 88.9315 117.674 89.2973C116.794 89.6631 115.849 89.8519 114.896 89.8529ZM85.9394 59.3861C84.2148 59.39 82.562 60.0774 81.3431 61.2976C80.1243 62.5178 79.4388 64.1714 79.4369 65.8961V82.584C79.4388 84.3087 80.1243 85.9623 81.3431 87.1825C82.562 88.4027 84.2148 89.0901 85.9394 89.094H114.896C116.621 89.0901 118.275 88.4029 119.495 87.1829C120.715 85.9629 121.402 84.3094 121.406 82.584V65.8961C121.402 64.1707 120.715 62.5172 119.495 61.2972C118.275 60.0772 116.621 59.39 114.896 59.3861H85.9394Z" fill="#E0E0E0"/>
<path d="M119.293 62.7339H90.3439C86.5431 62.7339 83.4619 65.8151 83.4619 69.6159V86.3112C83.4619 90.1121 86.5431 93.1932 90.3439 93.1932H119.293C123.094 93.1932 126.175 90.1121 126.175 86.3112V69.6159C126.175 65.8151 123.094 62.7339 119.293 62.7339Z" fill="#F0F0F0"/>
<path d="M126.175 77.9712H81.4678V78.9905H126.175V77.9712Z" fill="#E0E0E0"/>
<path d="M126.175 83.2388H81.4678V84.2581H126.175V83.2388Z" fill="#E0E0E0"/>
<path d="M114.228 88.2658C119.025 87.5899 122.366 83.1531 121.69 78.356C121.014 73.5589 116.577 70.218 111.78 70.8939C106.983 71.5698 103.642 76.0065 104.318 80.8036C104.994 85.6008 109.431 88.9417 114.228 88.2658Z" fill="#E0E0E0"/>
<path d="M118.873 86.0005C122.742 83.085 123.515 77.585 120.599 73.716C117.684 69.847 112.184 69.0741 108.315 71.9896C104.446 74.9051 103.673 80.405 106.589 84.274C109.504 88.143 115.004 88.916 118.873 86.0005Z" fill="#F5F5F5"/>
<path d="M118.79 84.1847C121.658 81.3169 121.658 76.6674 118.79 73.7997C115.922 70.932 111.273 70.932 108.405 73.7997C105.537 76.6674 105.537 81.3169 108.405 84.1847C111.273 87.0524 115.922 87.0524 118.79 84.1847Z" fill="#EBEBEB"/>
<path d="M73.9386 182.406H54.4458V281.663H73.9386V182.406Z" fill="#F0F0F0"/>
<path d="M154.313 281.664H58.1885V284.498H154.313V281.664Z" fill="#F0F0F0"/>
<path d="M73.9385 281.671H158.055V182.414H73.9385L73.9385 281.671Z" fill="#F5F5F5"/>
<path d="M150.4 194.615V227.173H81.6021V194.615H106.392V195.255C106.396 195.729 106.586 196.182 106.922 196.516C107.258 196.85 107.712 197.039 108.185 197.041H123.861C124.334 197.039 124.787 196.85 125.122 196.516C125.456 196.181 125.645 195.728 125.647 195.255V194.615H150.4Z" fill="#E0E0E0"/>
<path d="M157.527 193.492L150.4 227.173H81.6021L88.737 193.492H113.512L113.378 194.154C113.313 194.369 113.299 194.597 113.338 194.818C113.376 195.039 113.467 195.248 113.602 195.428C113.737 195.608 113.912 195.753 114.114 195.853C114.315 195.952 114.537 196.002 114.762 195.999H130.446C130.959 195.97 131.449 195.774 131.841 195.441C132.233 195.108 132.506 194.656 132.618 194.154L132.752 193.492H157.527Z" fill="#EBEBEB"/>
<path d="M81.6019 269.447H150.392V236.897H81.6019V269.447Z" fill="#EBEBEB"/>
<path d="M123.831 234.851H108.155C107.169 234.851 106.37 235.651 106.37 236.637V237.529C106.37 238.516 107.169 239.315 108.155 239.315H123.831C124.817 239.315 125.617 238.516 125.617 237.529V236.637C125.617 235.651 124.817 234.851 123.831 234.851Z" fill="#F5F5F5"/>
<path d="M134.128 158.413H119.263V162.438H134.128V158.413Z" fill="#EBEBEB"/>
<path d="M134.128 157.371H90.0015V158.412H134.128V157.371Z" fill="#E0E0E0"/>
<path d="M141.94 162.43H67.7935V182.407H141.94V162.43Z" fill="#F0F0F0"/>
<path d="M136.264 161.418H73.4775V162.437H136.264V161.418Z" fill="#E0E0E0"/>
<path d="M87.7699 162.43H67.7935V182.407H87.7699V162.43Z" fill="#E0E0E0"/>
<path d="M91.9955 161.418L92.6204 158.413H91.3779L91.9955 161.418Z" fill="#E0E0E0"/>
<path d="M311.505 57.459H214.837V269.454H311.505V57.459Z" fill="#E6E6E6"/>
<path d="M316.021 57.459H216.058V269.454H316.021V57.459Z" fill="#F5F5F5"/>
<path d="M307.339 260.772V66.1343H224.725V260.772H307.339Z" fill="white"/>
<path d="M294.059 108.863C297.959 93.3833 288.572 77.6731 273.092 73.7734C257.612 69.8736 241.902 79.2611 238.002 94.7409C234.102 110.221 243.49 125.931 258.97 129.831C274.449 133.73 290.16 124.343 294.059 108.863Z" fill="#F0F0F0"/>
<path d="M266.04 129.359C281.259 129.359 293.597 117.021 293.597 101.801C293.597 86.5817 281.259 74.2437 266.04 74.2437C250.82 74.2437 238.482 86.5817 238.482 101.801C238.482 117.021 250.82 129.359 266.04 129.359Z" fill="#E0E0E0"/>
<path d="M266.04 109.799C270.457 109.799 274.038 106.218 274.038 101.801C274.038 97.384 270.457 93.8032 266.04 93.8032C261.622 93.8032 258.042 97.384 258.042 101.801C258.042 106.218 261.622 109.799 266.04 109.799Z" fill="white"/>
<path d="M262.877 133.548H245.684V150.742H262.877V133.548Z" fill="#F5F5F5"/>
<path d="M286.396 133.548H269.202V150.742H286.396V133.548Z" fill="#E6E6E6"/>
<path d="M294.141 207.062C297.87 191.54 288.311 175.934 272.789 172.205C257.267 168.476 241.661 178.035 237.932 193.557C234.202 209.079 243.762 224.685 259.284 228.414C274.806 232.143 290.412 222.584 294.141 207.062Z" fill="#F0F0F0"/>
<path d="M293.247 204.804C295.715 189.786 285.54 175.611 270.522 173.143C255.503 170.676 241.328 180.85 238.861 195.869C236.393 210.887 246.568 225.062 261.586 227.53C276.605 229.997 290.78 219.823 293.247 204.804Z" fill="#E6E6E6"/>
<path d="M266.04 208.312C270.457 208.312 274.038 204.732 274.038 200.314C274.038 195.897 270.457 192.316 266.04 192.316C261.622 192.316 258.042 195.897 258.042 200.314C258.042 204.732 261.622 208.312 266.04 208.312Z" fill="white"/>
<path d="M269.209 249.255H286.403V232.061H269.209V249.255Z" fill="#F5F5F5"/>
<path d="M245.684 249.255H262.877V232.061H245.684V249.255Z" fill="#E6E6E6"/>
<path d="M186 318.105C265.669 318.105 330.254 314.334 330.254 309.683C330.254 305.031 265.669 301.261 186 301.261C106.33 301.261 41.7456 305.031 41.7456 309.683C41.7456 314.334 106.33 318.105 186 318.105Z" fill="#F5F5F5"/>
<g opacity="0.4">
<path d="M106.489 129.873C91.6647 129.964 77.0943 126.027 64.3336 118.482C64.2674 118.442 64.2194 118.377 64.2 118.302C64.1805 118.227 64.1911 118.148 64.2295 118.08C64.2487 118.047 64.2744 118.017 64.3052 117.994C64.3359 117.971 64.371 117.953 64.4084 117.944C64.4459 117.934 64.4848 117.932 64.5231 117.937C64.5614 117.943 64.5981 117.956 64.6312 117.976C105.209 141.65 146.516 123.489 186.476 105.931C225.09 88.9602 265.028 71.4241 304.363 91.5121C304.397 91.5292 304.428 91.5529 304.453 91.5818C304.478 91.6107 304.497 91.6442 304.509 91.6805C304.521 91.7167 304.526 91.755 304.523 91.7932C304.52 91.8313 304.51 91.8685 304.493 91.9027C304.476 91.9369 304.452 91.9674 304.423 91.9925C304.395 92.0175 304.361 92.0366 304.325 92.0487C304.252 92.0731 304.172 92.0675 304.102 92.0329C265.005 72.0937 225.238 89.5926 186.707 106.504C160.369 118.043 133.444 129.873 106.489 129.873Z" fill="#263238"/>
<path d="M106.489 141.509C92.1075 141.598 77.9579 137.887 65.472 130.751C65.405 130.713 65.3556 130.65 65.3347 130.577C65.3138 130.503 65.323 130.423 65.3604 130.356C65.3994 130.289 65.4633 130.239 65.5385 130.218C65.6136 130.198 65.6939 130.207 65.7622 130.245C105.938 152.952 146.858 134.962 186.491 117.56C225.477 100.448 265.794 82.7106 305.531 103.684C305.589 103.726 305.63 103.788 305.646 103.857C305.662 103.927 305.652 104 305.619 104.063C305.585 104.127 305.53 104.176 305.464 104.202C305.397 104.228 305.323 104.229 305.256 104.205C265.824 83.3727 225.648 101.02 186.751 118.095C160.369 129.672 133.436 141.509 106.489 141.509Z" fill="#263238"/>
<path d="M106.481 153.138C92.5311 153.226 78.7912 149.737 66.5731 143.004C66.5056 142.965 66.456 142.901 66.4352 142.826C66.4143 142.751 66.4238 142.671 66.4615 142.603C66.4793 142.569 66.5039 142.539 66.5337 142.515C66.5635 142.491 66.5978 142.473 66.6347 142.462C66.6716 142.452 66.7102 142.449 66.7482 142.454C66.7862 142.459 66.8228 142.472 66.8558 142.491C106.69 164.253 147.245 146.427 186.469 129.188C225.826 111.898 266.523 94.012 306.602 115.915C306.669 115.953 306.719 116.015 306.741 116.089C306.763 116.162 306.756 116.241 306.721 116.31C306.703 116.343 306.679 116.373 306.649 116.398C306.62 116.422 306.586 116.44 306.549 116.451C306.512 116.462 306.474 116.466 306.436 116.462C306.398 116.458 306.361 116.447 306.327 116.429C266.493 94.6667 225.93 112.486 186.707 129.724C160.369 141.301 133.429 153.138 106.481 153.138Z" fill="#263238"/>
<path d="M106.474 164.766C92.9604 164.853 79.6373 161.578 67.7042 155.236C67.6355 155.198 67.584 155.135 67.5605 155.06C67.5369 154.985 67.5431 154.904 67.5777 154.834C67.6154 154.765 67.6788 154.714 67.7541 154.692C67.8293 154.669 67.9103 154.678 67.9795 154.715C107.411 175.547 147.625 157.899 186.484 140.817C226.199 123.363 267.275 105.313 307.756 128.169C307.823 128.206 307.872 128.269 307.893 128.343C307.914 128.417 307.905 128.496 307.867 128.563C307.828 128.631 307.764 128.68 307.689 128.701C307.614 128.722 307.534 128.713 307.466 128.675C267.29 105.968 226.325 123.958 186.737 141.323C160.377 152.929 133.429 164.766 106.474 164.766Z" fill="#263238"/>
<path d="M106.474 176.402C93.3851 176.495 80.4667 173.433 68.8126 167.474C68.7444 167.438 68.6931 167.376 68.6695 167.303C68.6459 167.229 68.6518 167.149 68.6861 167.08C68.7034 167.046 68.7274 167.015 68.7567 166.99C68.786 166.965 68.82 166.946 68.8567 166.934C68.8934 166.922 68.9321 166.918 68.9705 166.921C69.0089 166.925 69.0463 166.936 69.0804 166.954C108.17 186.885 147.944 169.394 186.476 152.475C226.563 134.865 268.011 116.644 308.842 140.467C308.875 140.486 308.905 140.512 308.928 140.543C308.952 140.574 308.969 140.609 308.979 140.646C308.988 140.684 308.99 140.723 308.985 140.761C308.979 140.799 308.966 140.836 308.946 140.869C308.928 140.902 308.902 140.931 308.872 140.955C308.842 140.978 308.808 140.995 308.771 141.005C308.734 141.015 308.696 141.017 308.658 141.011C308.62 141.006 308.584 140.993 308.552 140.973C267.974 117.269 226.66 135.408 186.744 152.981C160.377 164.558 133.422 176.402 106.474 176.402Z" fill="#263238"/>
</g>
<path d="M95.0534 150.288C94.7812 149.208 94.1321 148.261 93.2232 147.617C92.7005 147.249 92.2641 146.771 91.9442 146.218C91.6243 145.664 91.4286 145.047 91.3706 144.41L91.5269 143.979C91.5535 143.906 91.5501 143.825 91.5173 143.755C91.4845 143.684 91.425 143.63 91.352 143.603C91.279 143.577 91.1984 143.58 91.128 143.613C91.0575 143.646 91.0029 143.705 90.9763 143.778L84.9797 160.704C84.7919 160.289 84.5209 159.917 84.1836 159.61C83.3432 158.867 82.3128 158.373 81.2076 158.182C78.7301 157.698 76.4609 158.621 76.1484 160.235C75.8731 161.627 77.1379 163.085 79.0723 163.777C79.395 163.89 79.7258 163.98 80.0618 164.045C81.1537 164.281 82.2897 164.209 83.3429 163.836C83.7655 163.711 84.1491 163.479 84.4576 163.164C84.7661 162.849 84.9893 162.461 85.1061 162.036L89.3172 150.199C89.5769 151.308 90.2331 152.285 91.1623 152.944C91.713 153.333 92.1685 153.842 92.4945 154.432C92.8205 155.022 93.0086 155.678 93.0446 156.352C93.05 156.391 93.0659 156.429 93.0908 156.46C93.1157 156.492 93.1486 156.516 93.186 156.53H93.2381C93.287 156.538 93.3372 156.528 93.3795 156.502C93.4217 156.476 93.4534 156.436 93.4687 156.389L94.9567 152.208C95.1873 151.593 95.2211 150.922 95.0534 150.288Z" fill="#263238"/>
<path d="M261.367 117.604C260.507 116.883 259.416 116.497 258.294 116.518C257.654 116.528 257.019 116.401 256.432 116.144C255.846 115.887 255.321 115.507 254.894 115.03L254.76 114.583C254.738 114.509 254.687 114.446 254.619 114.409C254.551 114.371 254.471 114.362 254.396 114.382C254.321 114.405 254.259 114.456 254.221 114.524C254.183 114.592 254.174 114.672 254.195 114.747L259.321 132.045C258.923 131.817 258.482 131.672 258.026 131.621C256.908 131.512 255.782 131.719 254.775 132.216C252.476 133.287 251.174 135.378 251.874 136.881C252.476 138.176 254.373 138.615 256.338 138.027C256.666 137.928 256.986 137.806 257.297 137.662C258.326 137.209 259.207 136.477 259.842 135.549C260.112 135.196 260.287 134.78 260.352 134.34C260.417 133.9 260.37 133.451 260.214 133.035L256.62 120.915C257.491 121.663 258.605 122.068 259.753 122.053C260.43 122.046 261.099 122.191 261.713 122.479C262.326 122.766 262.866 123.187 263.294 123.712C263.323 123.741 263.358 123.761 263.398 123.772C263.437 123.782 263.478 123.782 263.517 123.772H263.569C263.612 123.747 263.646 123.709 263.665 123.663C263.684 123.617 263.687 123.566 263.673 123.519L262.401 119.241C262.239 118.599 261.877 118.026 261.367 117.604Z" fill="#263238"/>
<path d="M146.159 147.052C146.953 147.374 147.666 147.872 148.242 148.506C148.819 149.141 149.246 149.898 149.492 150.719C149.508 150.769 149.539 150.812 149.58 150.844C149.621 150.876 149.671 150.895 149.722 150.898C149.744 150.905 149.768 150.905 149.789 150.898C149.852 150.89 149.91 150.862 149.954 150.817C149.999 150.773 150.027 150.715 150.035 150.653L150.429 147.044C150.522 146.228 150.364 145.402 149.975 144.678C149.32 143.418 148.235 142.434 146.918 141.903C146.162 141.598 145.481 141.133 144.922 140.539C144.364 139.946 143.94 139.239 143.681 138.466L143.741 137.878C143.751 137.78 143.723 137.683 143.661 137.606C143.6 137.529 143.511 137.48 143.413 137.469C143.364 137.464 143.315 137.468 143.268 137.482C143.221 137.496 143.177 137.52 143.139 137.551C143.101 137.582 143.069 137.62 143.046 137.664C143.023 137.707 143.009 137.755 143.004 137.804L140.527 160.518C140.173 160.061 139.73 159.681 139.225 159.402C137.969 158.724 136.549 158.41 135.125 158.494C133.701 158.528 132.314 158.952 131.115 159.722C130.584 159.971 130.139 160.371 129.834 160.871C129.53 161.372 129.38 161.952 129.404 162.538C129.428 163.123 129.624 163.689 129.968 164.163C130.312 164.638 130.789 165 131.338 165.205C132.191 165.679 133.134 165.971 134.106 166.061C134.545 166.113 134.988 166.128 135.43 166.105C138.615 165.979 141.137 164.201 141.099 162.125L142.156 152.408C142.811 153.706 143.913 154.723 145.258 155.273C146.479 155.868 147.624 156.441 148.592 158.941C148.613 158.988 148.646 159.029 148.688 159.06C148.73 159.091 148.778 159.112 148.83 159.119H148.897C148.96 159.112 149.019 159.083 149.062 159.037C149.106 158.99 149.132 158.93 149.135 158.866L149.529 155.265C149.63 154.446 149.471 153.616 149.075 152.892C148.42 151.632 147.335 150.647 146.017 150.117C145.261 149.813 144.579 149.348 144.02 148.755C143.462 148.161 143.039 147.453 142.781 146.68L143.056 144.187C143.706 145.489 144.809 146.508 146.159 147.052Z" fill="#263238"/>
<path d="M125.371 136.494L125.989 123.601L126.22 118.794V118.519L113.088 117.894V118.162L112.857 122.976L112.299 134.768C111.772 134.266 111.136 133.892 110.44 133.677C109.744 133.461 109.008 133.409 108.289 133.525C105.968 133.764 104.205 135.192 104.353 136.71C104.487 138.012 105.998 138.942 107.902 139.061C108.217 139.087 108.533 139.087 108.847 139.061C111.154 138.83 112.902 137.431 112.783 135.929L113.311 124.85L125.371 125.423L124.903 135.385C124.624 135.072 124.285 134.819 123.906 134.641C122.965 134.207 121.922 134.043 120.893 134.165C118.571 134.403 116.808 135.824 116.957 137.342C117.091 138.652 118.601 139.574 120.506 139.701C120.82 139.726 121.136 139.726 121.451 139.701C123.735 139.403 125.491 137.997 125.371 136.494ZM113.326 124.285L113.386 122.998L125.446 123.578L125.386 124.858L113.326 124.285Z" fill="#263238"/>
<path d="M301.186 111.689L302.451 101.348L302.919 97.4938V97.2781L292.392 95.9761V96.1993L291.916 100.053L290.755 109.517C290.361 109.081 289.871 108.742 289.323 108.528C288.776 108.313 288.186 108.229 287.601 108.282C285.718 108.326 284.215 109.376 284.245 110.603C284.245 111.66 285.435 112.523 286.961 112.709C287.208 112.727 287.457 112.727 287.705 112.709C289.572 112.657 291.068 111.63 291.06 110.417L292.146 101.534L301.818 102.717L300.844 110.707C300.645 110.434 300.392 110.206 300.1 110.038C299.371 109.632 298.544 109.439 297.711 109.48C295.822 109.532 294.319 110.573 294.349 111.801C294.349 112.857 295.539 113.72 297.064 113.906C297.312 113.924 297.561 113.924 297.808 113.906C299.698 113.929 301.186 112.902 301.186 111.689ZM292.221 101.139L292.34 100.113L302.012 101.296L301.893 102.322L292.221 101.139Z" fill="#263238"/>
<path d="M262.476 87.9036L256.189 74.9878L253.845 70.1667L253.704 69.936L240.542 76.3419L240.669 76.6097L243.02 81.4308L248.764 93.2456C247.551 92.7768 245.788 93.0893 244.196 94.1756C242.045 95.6636 241.086 97.9774 242.045 99.3836C242.871 100.589 244.858 100.715 246.762 99.7928C247.082 99.6399 247.388 99.4607 247.677 99.2571C249.798 97.8063 250.758 95.5371 249.842 94.0937L243.556 81.1779L255.646 75.2928L261.397 87.048C260.184 86.5793 258.421 86.8918 256.821 87.978C255.855 88.6123 255.083 89.5004 254.589 90.5448C254.345 90.9456 254.221 91.4086 254.234 91.8779C254.247 92.3472 254.395 92.8028 254.661 93.1898C254.926 93.5768 255.299 93.8786 255.732 94.0587C256.166 94.2389 256.642 94.2898 257.104 94.2053C257.882 94.1569 258.642 93.9493 259.336 93.5952C259.659 93.4397 259.969 93.2607 260.266 93.0596C262.431 91.6162 263.376 89.28 262.476 87.9036Z" fill="#263238"/>
<path d="M219.13 153.212C218.513 153.212 217.858 153.212 217.181 153.138C212.672 152.781 208.707 150.467 205.381 146.271C195.389 133.623 194.184 108.089 195.166 101.705L195.568 101.765C194.593 108.111 195.784 133.489 205.701 146.018C208.952 150.125 212.821 152.379 217.211 152.714C224.018 153.257 228.951 150.95 231.473 146.055C235.454 138.325 232.418 125.29 224.398 115.737C221.824 112.672 220.953 109.353 222.01 106.638C222.388 105.645 223.03 104.774 223.866 104.119C224.703 103.463 225.702 103.048 226.756 102.918C229.643 102.531 232.641 104.123 234.94 107.278L234.613 107.516C232.381 104.488 229.531 102.955 226.786 103.32C225.804 103.44 224.874 103.826 224.096 104.435C223.317 105.045 222.719 105.855 222.367 106.779C221.362 109.361 222.21 112.53 224.688 115.477C232.939 125.305 235.93 138.243 231.808 146.241C230.156 149.544 226.607 153.212 219.13 153.212Z" fill="#78DCFF"/>
<path d="M179.676 76.0074C174.468 78.4775 167.496 80.2705 169.706 89.63C171.916 98.9895 166.031 101.757 170.45 105.41C174.87 109.063 190.307 108.728 196.245 106.43C202.941 103.833 210.686 95.0612 203.134 90.5749C197.242 87.0781 194.682 82.5546 193.827 79.8018C192.078 74.1846 186.059 71.0077 179.676 76.0074Z" fill="#263238"/>
<path d="M208.803 90.2101C203.067 89.0421 197.316 86.9142 194.147 79.3477C192.874 76.3122 190.858 74.4001 188.455 73.9686C185.739 73.485 182.696 74.8614 179.906 77.8523L179.609 77.5696C182.496 74.482 185.658 73.0535 188.537 73.5743C191.081 74.0281 193.209 76.0221 194.534 79.1915C197.629 86.5794 203.268 88.6626 208.9 89.8084L208.803 90.2101Z" fill="#263238"/>
<path d="M206.624 118.095L206.899 118.385L207.263 118.757C207.524 119.003 207.777 119.263 208.059 119.501C208.603 120.007 209.19 120.491 209.786 120.989C210.977 121.962 212.218 122.871 213.506 123.713C214.815 124.568 216.184 125.349 217.56 126.116C218.304 126.473 218.959 126.86 219.681 127.202L221.347 127.998C221.587 128.088 221.852 128.088 222.091 127.998C222.6 127.813 223.074 127.546 223.497 127.209C224.633 126.304 225.655 125.265 226.54 124.114C228.503 121.573 230.272 118.887 231.83 116.079L234.948 117.351C233.929 120.736 232.502 123.983 230.699 127.023C229.728 128.664 228.539 130.165 227.165 131.487C226.337 132.274 225.387 132.922 224.353 133.407C223.046 134.023 221.581 134.22 220.157 133.972C219.787 133.906 219.424 133.809 219.071 133.682L218.386 133.429L217.151 132.953C216.318 132.641 215.514 132.261 214.703 131.911C213.079 131.165 211.497 130.331 209.964 129.412C208.418 128.479 206.928 127.458 205.5 126.354C204.756 125.781 204.087 125.193 203.402 124.553C203.06 124.241 202.718 123.906 202.383 123.564L201.884 123.028C201.706 122.827 201.572 122.678 201.319 122.373L206.624 118.095Z" fill="#FFB573"/>
<path d="M201.177 111.875C203.93 111.206 210.924 120.253 210.924 120.253L206.676 128.34C206.676 128.34 194.928 121.711 195.374 118.058C195.836 114.256 197.16 112.857 201.177 111.875Z" fill="#78DCFF"/>
<path opacity="0.2" d="M201.177 111.875C203.93 111.206 210.924 120.253 210.924 120.253L206.676 128.34C206.676 128.34 194.928 121.711 195.374 118.058C195.836 114.256 197.16 112.857 201.177 111.875Z" fill="white"/>
<path opacity="0.2" d="M202.993 115.008L202.323 125.595C204.659 127.195 206.676 128.34 206.676 128.34L207.561 126.644L202.993 115.008Z" fill="black"/>
<path d="M231.235 117.805L233.794 110.7L237.432 116.399C237.432 116.399 235.394 120.119 232.626 120.119L231.235 117.805Z" fill="#FFB573"/>
<path d="M237.492 107.412L241.234 111.675L237.433 116.392L233.794 110.7L237.492 107.412Z" fill="#FFB573"/>
<path d="M195.084 299.453L201.713 299.713L202.896 284.312L196.267 284.052L195.084 299.453Z" fill="#FFB573"/>
<path d="M130.512 208.298L129.203 214.815L143.889 219.941L145.191 213.417L130.512 208.298Z" fill="#FFB573"/>
<path d="M130.334 215.76L132.863 208.729C132.911 208.609 132.912 208.476 132.867 208.355C132.821 208.234 132.733 208.134 132.618 208.075L127.35 205.27C127.215 205.201 127.066 205.162 126.914 205.155C126.762 205.149 126.61 205.175 126.469 205.232C126.328 205.289 126.201 205.376 126.096 205.486C125.991 205.597 125.912 205.728 125.862 205.872C125.014 208.335 124.731 209.592 123.63 212.658C122.938 214.562 121.257 218.096 120.312 220.715C119.367 223.334 121.912 224.435 122.544 223.416C125.371 218.892 127.588 217.814 129.567 216.668C129.919 216.461 130.189 216.141 130.334 215.76Z" fill="#263238"/>
<path d="M201.936 299.319L194.742 297.302C194.618 297.265 194.485 297.274 194.368 297.329C194.251 297.384 194.159 297.481 194.109 297.6L191.691 303.061C191.637 303.203 191.614 303.355 191.623 303.507C191.632 303.659 191.673 303.807 191.743 303.942C191.813 304.077 191.911 304.195 192.031 304.29C192.15 304.384 192.288 304.452 192.435 304.489C194.95 305.144 196.2 305.338 199.369 306.223C201.311 306.766 207.003 309.333 209.785 309.556C212.568 309.779 212.932 307.034 211.794 306.692C208.124 305.608 204.973 303.229 202.926 299.996C202.687 299.659 202.336 299.419 201.936 299.319Z" fill="#263238"/>
<g opacity="0.2">
<path d="M202.896 284.313L202.286 292.251L195.657 291.998L196.259 284.06L202.896 284.313Z" fill="black"/>
<path d="M145.191 213.417L143.882 219.941L136.315 217.293L137.625 210.775L145.191 213.417Z" fill="black"/>
</g>
<path d="M204.652 114.643C205.292 118.408 205.909 127.901 203.164 150.013L176.209 151.679C176 141.345 175.465 133.012 169.862 112.991C169.722 112.498 169.695 111.98 169.781 111.475C169.868 110.97 170.067 110.491 170.363 110.072C170.659 109.654 171.045 109.308 171.493 109.058C171.94 108.809 172.438 108.663 172.95 108.631C175.003 108.512 177.585 108.431 180.219 108.542C184.374 108.633 188.518 109.011 192.621 109.673C196.118 110.298 199.95 111.265 202.174 111.868C202.81 112.044 203.382 112.399 203.821 112.891C204.26 113.383 204.549 113.991 204.652 114.643Z" fill="#78DCFF"/>
<path opacity="0.2" d="M204.652 114.643C205.292 118.408 205.909 127.901 203.164 150.013L176.209 151.679C176 141.345 175.465 133.012 169.862 112.991C169.722 112.498 169.695 111.98 169.781 111.475C169.868 110.97 170.067 110.491 170.363 110.072C170.659 109.654 171.045 109.308 171.493 109.058C171.94 108.809 172.438 108.663 172.95 108.631C175.003 108.512 177.585 108.431 180.219 108.542C184.374 108.633 188.518 109.011 192.621 109.673C196.118 110.298 199.95 111.265 202.174 111.868C202.81 112.044 203.382 112.399 203.821 112.891C204.26 113.383 204.549 113.991 204.652 114.643Z" fill="white"/>
<path d="M203.112 150.013C203.112 150.013 211.512 200.828 212.323 221.094C213.171 242.179 203.692 290.123 203.692 290.123H194.727C194.727 290.123 198.008 244.352 195.94 223.721C193.708 201.23 183.403 151.233 183.403 151.233L203.112 150.013Z" fill="#78DCFF"/>
<path d="M193.946 290.45H204.503L205.277 287.08L193.455 286.671L193.946 290.45Z" fill="#263238"/>
<path opacity="0.2" d="M192.302 163.457C199.742 176.365 195.955 200.992 194.169 210.18C192.13 196.676 189.08 180.204 186.729 168.114C187.332 161.158 188.872 157.505 192.302 163.457Z" fill="black"/>
<path d="M196.029 150.459C196.029 150.459 195.835 204.027 187.637 219.741C177.898 238.341 137.506 219.175 137.506 219.175L139.291 210.247C139.291 210.247 166.075 216.281 173.076 211.289C180.606 187.957 166.767 168.137 176.186 151.65L196.029 150.459Z" fill="#78DCFF"/>
<path d="M139.44 209.22L137.23 220.246L140.459 222.121L143.644 209.257L139.44 209.22Z" fill="#263238"/>
<path d="M176.216 117.604C175.003 120.915 173.783 124.3 172.623 127.678C171.462 131.056 170.391 134.441 169.446 137.819L169.275 138.451L169.193 138.771C169.193 138.875 169.126 139.016 169.141 138.935V138.585C169.144 138.523 169.144 138.461 169.141 138.399C169.126 138.283 169.101 138.168 169.066 138.057C169.048 137.998 169.026 137.941 168.999 137.886C168.969 137.801 168.932 137.719 168.888 137.64C168.798 137.464 168.688 137.3 168.56 137.149C168.415 136.964 168.242 136.804 168.047 136.673C167.877 136.548 167.692 136.446 167.496 136.368C167.342 136.309 167.182 136.261 167.02 136.226C166.9 136.194 166.779 136.169 166.656 136.152C166.462 136.145 166.269 136.167 166.083 136.219C165.949 136.271 166.038 136.256 166.142 136.219C166.277 136.164 166.408 136.102 166.537 136.033C166.834 135.869 167.169 135.668 167.504 135.445C168.865 134.545 170.294 133.466 171.685 132.38C174.483 130.193 177.295 127.916 180.115 125.647L182.503 128.02C180.193 130.896 177.732 133.648 175.13 136.264C173.794 137.623 172.386 138.909 170.911 140.118C170.517 140.43 170.108 140.743 169.639 141.062C169.394 141.219 169.148 141.382 168.843 141.546C168.467 141.76 168.068 141.93 167.653 142.052C167.247 142.169 166.825 142.222 166.403 142.208C166.22 142.204 166.039 142.184 165.86 142.149C165.64 142.111 165.425 142.049 165.22 141.963C164.972 141.862 164.738 141.732 164.52 141.576C164.283 141.408 164.068 141.21 163.881 140.988C163.719 140.791 163.579 140.576 163.464 140.348C163.412 140.244 163.352 140.11 163.323 140.028L163.233 139.775C163.186 139.609 163.149 139.44 163.122 139.269C163.114 139.15 163.114 139.031 163.122 138.912C163.107 138.717 163.107 138.52 163.122 138.325V138.072V137.886C163.166 137.581 163.189 137.506 163.211 137.387L163.278 137.045L163.419 136.353C164.163 132.633 165.153 129.099 166.247 125.572C167.34 122.046 168.516 118.594 169.9 115.119L176.216 117.604Z" fill="#FFB573"/>
<path d="M170.785 108.981C168.136 109.971 165.465 119.471 165.465 119.471L176.41 126.316C176.41 126.316 179.891 117.15 178.537 113.728C177.131 110.164 173.813 107.88 170.785 108.981Z" fill="#78DCFF"/>
<path opacity="0.2" d="M170.785 108.981C168.136 109.971 165.465 119.471 165.465 119.471L176.41 126.316C176.41 126.316 179.891 117.15 178.537 113.728C177.131 110.164 173.813 107.88 170.785 108.981Z" fill="white"/>
<path d="M128.332 218.736C128.332 218.736 128.332 218.788 128.332 218.818C128.394 218.958 128.491 219.081 128.614 219.173C128.736 219.266 128.88 219.325 129.032 219.346C129.124 219.37 129.221 219.369 129.312 219.343C129.404 219.316 129.487 219.266 129.553 219.198C130.148 218.595 129.605 216.222 129.553 215.983C129.547 215.953 129.531 215.925 129.509 215.904C129.486 215.882 129.457 215.869 129.426 215.864C129.396 215.86 129.366 215.864 129.339 215.876C129.311 215.888 129.287 215.907 129.27 215.931C128.816 216.675 128.087 217.992 128.332 218.736ZM129.344 216.43C129.538 217.375 129.672 218.662 129.344 218.982C129.313 219.011 129.274 219.031 129.232 219.041C129.191 219.05 129.147 219.047 129.106 219.034C129.006 219.021 128.91 218.983 128.828 218.923C128.746 218.863 128.68 218.783 128.637 218.692C128.481 218.297 128.712 217.464 129.344 216.452V216.43Z" fill="#78DCFF"/>
<path d="M129.322 216.311C129.568 217.099 130.401 218.424 131.078 218.543C131.202 218.56 131.328 218.534 131.436 218.471C131.544 218.407 131.627 218.31 131.673 218.193C131.725 218.084 131.752 217.964 131.752 217.843C131.752 217.722 131.725 217.603 131.673 217.494C131.316 216.593 129.515 215.939 129.441 215.909C129.418 215.894 129.391 215.887 129.363 215.887C129.335 215.887 129.308 215.894 129.285 215.909C129.265 215.928 129.251 215.951 129.241 215.977C129.232 216.003 129.229 216.031 129.233 216.058C129.257 216.144 129.287 216.228 129.322 216.311ZM131.428 217.642C131.449 217.707 131.457 217.776 131.45 217.843C131.444 217.911 131.424 217.977 131.39 218.037C131.301 218.215 131.204 218.223 131.13 218.215C130.669 218.148 129.91 217.07 129.642 216.303C130.23 216.556 131.189 217.047 131.405 217.598C131.409 217.614 131.417 217.63 131.428 217.642Z" fill="#78DCFF"/>
<path d="M204.027 301.112C204.561 301.315 205.149 301.331 205.694 301.157C205.821 301.093 205.93 301 206.013 300.884C206.096 300.769 206.15 300.635 206.17 300.495C206.189 300.41 206.186 300.321 206.162 300.238C206.137 300.154 206.091 300.079 206.028 300.018C205.366 299.364 202.442 299.951 202.115 300.018C202.083 300.026 202.055 300.043 202.032 300.067C202.01 300.091 201.995 300.12 201.988 300.152C201.985 300.184 201.992 300.217 202.008 300.245C202.024 300.273 202.049 300.295 202.078 300.309C202.702 300.635 203.354 300.904 204.027 301.112ZM205.515 300.108C205.615 300.127 205.707 300.174 205.783 300.242C205.809 300.266 205.828 300.296 205.839 300.33C205.849 300.364 205.851 300.4 205.842 300.435C205.829 300.528 205.793 300.616 205.739 300.692C205.684 300.768 205.613 300.831 205.53 300.874C205.046 301.112 203.975 300.874 202.621 300.242C203.578 300.031 204.565 299.986 205.537 300.108H205.515Z" fill="#78DCFF"/>
<path d="M202.108 300.331H202.167C203.03 300.204 204.927 299.244 205.009 298.485C205.009 298.307 204.972 298.061 204.563 297.898C204.419 297.833 204.263 297.8 204.105 297.8C203.947 297.8 203.792 297.833 203.648 297.898C202.658 298.337 202.026 300.026 201.996 300.093C201.984 300.117 201.977 300.143 201.977 300.171C201.977 300.198 201.984 300.225 201.996 300.249C202.007 300.27 202.023 300.288 202.042 300.303C202.062 300.317 202.084 300.326 202.108 300.331ZM204.34 298.158H204.436C204.704 298.27 204.689 298.381 204.682 298.419C204.637 298.88 203.305 299.676 202.398 299.907C202.657 299.193 203.136 298.581 203.767 298.158C203.956 298.085 204.165 298.085 204.354 298.158H204.34Z" fill="#78DCFF"/>
<path d="M175.688 150.124L175.145 152.58C175.063 152.773 175.293 152.952 175.606 152.929L203.35 151.218C203.595 151.218 203.789 151.069 203.796 150.921L203.893 148.488C203.893 148.324 203.677 148.19 203.409 148.212L176.112 149.894C176.027 149.892 175.943 149.912 175.869 149.952C175.794 149.993 175.732 150.052 175.688 150.124Z" fill="white"/>
<path d="M179.542 152.952L178.798 152.997C178.656 152.997 178.537 152.937 178.545 152.848L178.694 149.686C178.694 149.596 178.82 149.515 178.969 149.507L179.713 149.455C179.854 149.455 179.973 149.515 179.966 149.611L179.817 152.766C179.81 152.855 179.683 152.944 179.542 152.952Z" fill="#78DCFF"/>
<path d="M201.311 151.605L200.567 151.65C200.426 151.65 200.307 151.59 200.314 151.501L200.463 148.346C200.463 148.25 200.59 148.168 200.731 148.16L201.475 148.116C201.616 148.116 201.735 148.175 201.728 148.265L201.579 151.419C201.579 151.516 201.46 151.598 201.311 151.605Z" fill="#78DCFF"/>
<path d="M190.464 152.275L189.72 152.327C189.571 152.327 189.459 152.267 189.459 152.17L189.608 149.016C189.608 148.919 189.735 148.837 189.884 148.83L190.628 148.785C190.776 148.785 190.888 148.845 190.888 148.934L190.739 152.096C190.695 152.185 190.575 152.267 190.464 152.275Z" fill="#78DCFF"/>
<path d="M180.197 108.624C184.352 108.712 188.496 109.088 192.599 109.747C194.087 110.008 195.65 110.343 197.115 110.677C197.897 113.095 198.44 118.036 196.26 122.113C195.955 121.33 195.494 120.617 194.904 120.018C194.314 119.419 193.608 118.947 192.83 118.631C191.611 119.766 190.683 121.177 190.122 122.745C187.228 122.224 179.438 115.461 175.882 110.015L174.959 108.609C176.573 108.512 178.374 108.505 180.197 108.624Z" fill="white"/>
<path d="M180.576 94.957C181.603 98.9523 182.808 106.214 180.197 108.58C180.197 108.58 181.536 112.664 188.946 113.334C197.13 114.078 192.599 109.711 192.599 109.711C188.083 108.223 188.001 105.023 188.589 102.04L180.576 94.957Z" fill="#FFB573"/>
<path d="M180.204 108.624C184.357 108.705 188.499 109.081 192.599 109.748L193.41 109.896C194.519 111.831 194.854 114.026 192.733 117.969C192.733 117.969 181.685 113.349 178.597 108.58L180.204 108.624Z" fill="#FFB573"/>
<path opacity="0.2" d="M183.842 97.8511L188.581 102.04C188.434 102.74 188.351 103.452 188.336 104.168C186.617 103.773 183.79 102.07 183.5 100.299C183.445 99.4681 183.562 98.635 183.842 97.8511Z" fill="black"/>
<path d="M175.316 90.136C177.674 96.3037 178.537 98.9673 182.756 101.199C189.058 104.555 196.148 100.314 195.649 93.5732C195.233 87.5022 191.453 78.4403 184.489 77.86C182.96 77.7232 181.42 77.9802 180.018 78.6064C178.615 79.2327 177.396 80.2074 176.477 81.4378C175.557 82.6682 174.968 84.1134 174.765 85.6359C174.561 87.1584 174.751 88.7075 175.316 90.136Z" fill="#FFB573"/>
<path d="M184.988 90.6044L184.438 90.5449C184.578 89.8238 184.961 89.1726 185.524 88.6998C185.649 88.5695 185.807 88.4762 185.982 88.4301C186.156 88.384 186.34 88.3868 186.513 88.4383C186.686 88.4898 186.841 88.588 186.962 88.7221C187.083 88.8561 187.164 89.0209 187.198 89.1983L186.67 89.3694C186.654 89.2831 186.617 89.202 186.562 89.1332C186.508 89.0645 186.437 89.0102 186.357 88.975C186.269 88.9615 186.178 88.9686 186.093 88.9957C186.008 89.0228 185.93 89.0692 185.866 89.1313C185.422 89.515 185.114 90.0316 184.988 90.6044Z" fill="#263238"/>
<path d="M191.208 87.7179C191.177 87.5644 191.181 87.4059 191.218 87.2539C191.256 87.1019 191.327 86.96 191.425 86.8385C191.524 86.717 191.649 86.6187 191.79 86.5508C191.931 86.4829 192.085 86.447 192.242 86.4457C192.524 86.4223 192.807 86.4852 193.053 86.626C193.298 86.7668 193.496 86.979 193.618 87.2343L193.135 87.5022C193.063 87.3405 192.943 87.2051 192.791 87.1145C192.639 87.0239 192.463 86.9826 192.286 86.9962C192.205 86.9986 192.125 87.0168 192.051 87.05C191.977 87.0832 191.911 87.1307 191.855 87.1897C191.808 87.2557 191.775 87.3308 191.758 87.4102C191.742 87.4896 191.742 87.5716 191.758 87.651L191.208 87.7179Z" fill="#263238"/>
<path d="M190.159 88.3354C190.979 89.363 191.938 90.2719 193.008 91.0362C192.805 91.3037 192.546 91.524 192.249 91.682C191.952 91.8399 191.625 91.9318 191.29 91.9513L190.159 88.3354Z" fill="#ED893E"/>
<path d="M189.125 94.8303C189.377 94.7889 189.626 94.7266 189.869 94.6443C189.888 94.6384 189.906 94.6287 189.921 94.6156C189.937 94.6026 189.95 94.5865 189.959 94.5684C189.968 94.5503 189.973 94.5305 189.974 94.5103C189.975 94.4901 189.972 94.4698 189.965 94.4508C189.952 94.4126 189.924 94.3807 189.889 94.3615C189.853 94.3422 189.811 94.3369 189.772 94.3467C189.14 94.563 188.466 94.6259 187.804 94.5302C187.143 94.4344 186.515 94.1828 185.97 93.7961C185.937 93.7695 185.896 93.7569 185.854 93.761C185.812 93.7652 185.773 93.7859 185.747 93.8184C185.72 93.851 185.708 93.8928 185.712 93.9347C185.716 93.9765 185.737 94.015 185.769 94.0416C186.248 94.3889 186.792 94.6375 187.368 94.7729C187.944 94.9083 188.541 94.9278 189.125 94.8303Z" fill="#263238"/>
<path d="M175.167 95.753C175.955 96.7585 177.107 97.4134 178.374 97.5758C180.055 97.7693 180.606 96.2069 179.944 94.7561C179.326 93.4541 177.712 91.7801 176.127 92.2562C175.784 92.3662 175.474 92.5599 175.225 92.8198C174.976 93.0797 174.796 93.3976 174.7 93.7448C174.605 94.092 174.598 94.4574 174.679 94.8081C174.761 95.1587 174.928 95.4835 175.167 95.753Z" fill="#FFB573"/>
<path d="M186 77.8298C190.866 81.4233 184.728 81.8846 181.648 84.5258C178.672 87.0628 180.971 91.2218 175.926 92.8884C174.386 93.2575 172.808 93.4398 171.224 93.4315C171.224 93.4315 173.56 88.8633 172.816 86.118C172.072 83.3726 180.427 73.656 186 77.8298Z" fill="#263238"/>
<path d="M185.167 77.3092C186.201 79.5412 188.775 79.0873 190.836 81.364C192.101 82.7553 194.147 78.0606 190.888 76.4387C187.629 74.8168 183.545 73.8124 185.167 77.3092Z" fill="#263238"/>
<path d="M179.876 94.0045C180.568 96.6308 180.271 98.9893 177.644 99.6812C177.019 99.8449 176.367 99.8837 175.726 99.7954C175.085 99.7071 174.468 99.4935 173.91 99.1667C173.352 98.8399 172.863 98.4064 172.473 97.8909C172.082 97.3754 171.797 96.7879 171.633 96.1621C171.469 95.5363 171.43 94.8844 171.519 94.2437C171.607 93.6029 171.821 92.9858 172.147 92.4275C172.474 91.8693 172.908 91.3809 173.423 90.9902C173.939 90.5996 174.526 90.3143 175.152 90.1506C177.771 89.4661 179.185 91.3708 179.876 94.0045Z" fill="#78DCFF"/>
<path d="M179.988 75.769L176.767 77.3314C170.524 82.3981 174.096 91.6832 174.096 91.6832L176.528 90.5746C176.528 90.5746 173.746 80.8282 179.988 75.769Z" fill="#78DCFF"/>
<path d="M174.096 91.8843H174.014C173.964 91.8632 173.923 91.8231 173.902 91.7727C173.865 91.676 170.353 82.2867 176.633 77.1903L179.899 75.5982C179.944 75.5758 179.995 75.5711 180.044 75.5849C180.092 75.5986 180.133 75.6299 180.159 75.6726C180.186 75.7143 180.197 75.7642 180.19 75.8133C180.183 75.8624 180.159 75.9075 180.122 75.9404C174.051 80.8657 176.7 90.4335 176.729 90.5302C176.74 90.5777 176.735 90.6274 176.715 90.6718C176.695 90.7161 176.661 90.7526 176.618 90.7758L174.178 91.8843H174.096ZM178.857 76.543L176.856 77.5177C171.343 81.9817 173.746 90.0243 174.207 91.4082L176.291 90.4558C175.978 89.2134 174.282 81.4014 178.857 76.543Z" fill="#78DCFF"/>
<path opacity="0.3" d="M177.072 94.7339C177.6 96.765 177.525 98.5506 175.956 98.9598C174.386 99.369 172.689 98.0521 172.154 96.021C171.618 93.9899 172.459 92.0034 174.029 91.557C175.598 91.1106 176.558 92.7028 177.072 94.7339Z" fill="white"/>
<path d="M182.332 88.4545C182.395 88.4386 182.452 88.4024 182.494 88.3515C182.536 88.3005 182.56 88.2375 182.562 88.1718C182.652 86.6838 184.244 85.7166 184.259 85.7092C184.33 85.6658 184.381 85.5959 184.4 85.515C184.42 85.4341 184.406 85.3487 184.363 85.2777C184.319 85.2066 184.25 85.1557 184.169 85.1362C184.088 85.1167 184.002 85.1301 183.931 85.1735C183.849 85.2181 182.049 86.3565 181.937 88.1495C181.934 88.1906 181.939 88.2318 181.952 88.2709C181.965 88.31 181.986 88.3461 182.013 88.3772C182.04 88.4083 182.073 88.4338 182.11 88.4522C182.146 88.4706 182.186 88.4815 182.228 88.4843L182.332 88.4545Z" fill="#263238"/>
<path d="M192.911 83.2315C192.966 83.2317 193.019 83.2174 193.067 83.1899C193.114 83.1624 193.153 83.1228 193.179 83.0752C193.201 83.0397 193.215 83.0002 193.221 82.9591C193.227 82.9181 193.224 82.8762 193.214 82.8361C193.203 82.7959 193.185 82.7582 193.16 82.7252C193.135 82.6922 193.103 82.6645 193.068 82.6437C192.639 82.3848 192.155 82.2322 191.655 82.1985C191.156 82.1649 190.655 82.2512 190.196 82.4503C190.121 82.4878 190.064 82.5535 190.037 82.633C190.011 82.7126 190.017 82.7994 190.054 82.8743C190.092 82.9493 190.158 83.0063 190.237 83.0329C190.317 83.0594 190.403 83.0532 190.478 83.0157C190.843 82.8613 191.24 82.7969 191.635 82.828C192.03 82.8591 192.411 82.9847 192.748 83.1943C192.799 83.2171 192.855 83.2297 192.911 83.2315Z" fill="#263238"/>
<path d="M179.304 127.075L178.232 119.97L183.991 123.504C183.991 123.504 183.79 127.775 181.298 128.958L179.304 127.075Z" fill="#FFB573"/>
<path d="M180.286 116.376L185.665 118.326L184.013 123.504L178.255 119.97L180.286 116.376Z" fill="#FFB573"/>
<path d="M235.445 106.905L232.067 109.444C231.88 109.585 231.842 109.851 231.983 110.038L237.651 117.579C237.792 117.767 238.058 117.804 238.245 117.664L241.623 115.125C241.81 114.984 241.848 114.718 241.707 114.531L236.039 106.99C235.898 106.802 235.632 106.765 235.445 106.905Z" fill="#78DCFF"/>
<path d="M235.725 107.852L232.9 109.976C232.749 110.089 232.719 110.304 232.832 110.455L235.8 114.404C235.914 114.555 236.128 114.585 236.28 114.472L239.105 112.348C239.256 112.235 239.286 112.02 239.172 111.869L236.204 107.92C236.091 107.769 235.876 107.739 235.725 107.852Z" fill="white"/>
<path d="M236.502 116.436L236.458 115.506L237.403 114.948C237.889 114.663 238.332 114.309 238.72 113.899L239.047 113.557L238.839 113.252C238.725 113.086 238.56 112.963 238.369 112.9C238.178 112.837 237.972 112.837 237.782 112.902L236.986 113.17L232.991 113.713V115.409L234.27 117.158L236.502 116.436Z" fill="#FFB573"/>
</svg>
