<svg width="372" height="372" viewBox="0 0 372 372" fill="none" xmlns="http://www.w3.org/2000/svg">
<path d="M372 284.505H0V284.691H372V284.505Z" fill="#EBEBEB"/>
<path d="M334.726 296.477H310.084V296.663H334.726V296.477Z" fill="#EBEBEB"/>
<path d="M246.428 298.5H239.962V298.686H246.428V298.5Z" fill="#EBEBEB"/>
<path d="M309.34 289.572H295.063V289.758H309.34V289.572Z" fill="#EBEBEB"/>
<path d="M71.1636 290.822H39.0303V291.008H71.1636V290.822Z" fill="#EBEBEB"/>
<path d="M82.502 290.822H77.7925V291.008H82.502V290.822Z" fill="#EBEBEB"/>
<path d="M167.511 293.962H97.8135V294.148H167.511V293.962Z" fill="#EBEBEB"/>
<path d="M176.328 251.323H32.669C31.5436 251.321 30.465 250.873 29.6699 250.076C28.8748 249.28 28.4282 248.2 28.4282 247.075V45.131C28.438 44.012 28.8889 42.9421 29.6829 42.1536C30.477 41.3652 31.55 40.9218 32.669 40.9199H176.328C177.455 40.9199 178.535 41.3675 179.332 42.1642C180.129 42.9609 180.576 44.0415 180.576 45.1682V247.075C180.576 248.202 180.129 249.282 179.332 250.079C178.535 250.876 177.455 251.323 176.328 251.323ZM32.669 41.0687C31.5929 41.0707 30.5616 41.4995 29.8014 42.2612C29.0412 43.0228 28.6142 44.0549 28.6142 45.131V247.075C28.6142 248.151 29.0412 249.183 29.8014 249.945C30.5616 250.706 31.5929 251.135 32.669 251.137H176.328C177.405 251.135 178.437 250.707 179.198 249.945C179.96 249.184 180.388 248.152 180.39 247.075V45.131C180.388 44.0542 179.96 43.0221 179.198 42.2607C178.437 41.4993 177.405 41.0707 176.328 41.0687H32.669Z" fill="#EBEBEB"/>
<path d="M337.263 251.323H193.596C192.47 251.321 191.391 250.873 190.595 250.077C189.798 249.28 189.35 248.201 189.348 247.075V45.131C189.36 44.0113 189.812 42.9414 190.608 42.1532C191.403 41.3649 192.477 40.9218 193.596 40.9199H337.263C338.38 40.9238 339.452 41.368 340.244 42.1562C341.036 42.9445 341.486 44.0133 341.496 45.131V247.075C341.496 248.199 341.051 249.277 340.257 250.074C339.464 250.87 338.387 251.319 337.263 251.323ZM193.596 41.0687C192.52 41.0707 191.488 41.4993 190.726 42.2607C189.965 43.0221 189.536 44.0542 189.534 45.131V247.075C189.536 248.152 189.965 249.184 190.726 249.945C191.488 250.707 192.52 251.135 193.596 251.137H337.263C338.34 251.135 339.372 250.707 340.133 249.945C340.894 249.184 341.323 248.152 341.325 247.075V45.131C341.323 44.0542 340.894 43.0221 340.133 42.2607C339.372 41.4993 338.34 41.0707 337.263 41.0687H193.596Z" fill="#EBEBEB"/>
<path d="M174.595 62.8008H38.9039C38.0328 62.8008 37.3267 63.5069 37.3267 64.3781V66.7514C37.3267 67.6225 38.0328 68.3287 38.9039 68.3287H174.595C175.466 68.3287 176.172 67.6225 176.172 66.7514V64.3781C176.172 63.5069 175.466 62.8008 174.595 62.8008Z" fill="#E0E0E0"/>
<path d="M167.921 67.1982H45.5698V175.763H167.921V67.1982Z" fill="#E6E6E6"/>
<path d="M164.699 70.1738H48.6353V172.846H164.699V70.1738Z" fill="#F0F0F0"/>
<path d="M75.8731 70.1738L48.6353 172.623V124.478L63.0168 70.1738H75.8731Z" fill="white"/>
<path d="M85.5227 70.1738L58.0468 172.846H53.6572L81.1406 70.1738H85.5227Z" fill="white"/>
<path d="M164.699 134.961V151.367L159.142 172.846H154.752L164.699 134.961Z" fill="white"/>
<path d="M89.1164 68.3291H87.1597V175.138H89.1164V68.3291Z" fill="#E6E6E6"/>
<path d="M127.008 68.3291H125.052V175.138H127.008V68.3291Z" fill="#E6E6E6"/>
<path d="M147.981 64.5645C147.981 64.5645 150.794 101.296 166.983 120.015C166.983 120.015 155.191 167.289 155.198 183.768L177.116 179.721L169.215 120.29L172.995 64.5645H147.981Z" fill="#E0E0E0"/>
<path d="M65.5169 64.5645C65.5169 64.5645 62.6971 101.296 46.5151 120.015C46.5151 120.015 58.3001 167.289 58.2926 183.768L36.3818 179.721L44.2831 120.29L40.5036 64.5645H65.5169Z" fill="#E0E0E0"/>
<path d="M339.777 91.043H242.73V96.0278H339.777V91.043Z" fill="#E0E0E0"/>
<path d="M251.472 72.6665H247.194V91.0433H251.472V72.6665Z" fill="#EBEBEB"/>
<path d="M272.148 72.6665H267.87V91.0433H272.148V72.6665Z" fill="#EBEBEB"/>
<path d="M295.616 72.1967L291.4 72.9233L294.521 91.0331L298.737 90.3064L295.616 72.1967Z" fill="#EBEBEB"/>
<path d="M256.769 75.0845H252.491V91.0433H256.769V75.0845Z" fill="#EBEBEB"/>
<path d="M266.597 75.0845H262.319V91.0433H266.597V75.0845Z" fill="#EBEBEB"/>
<path d="M291.403 75.0845H287.125V91.0433H291.403V75.0845Z" fill="#EBEBEB"/>
<path d="M277.763 74.5265L273.587 75.4546L277.049 91.0333L281.225 90.1052L277.763 74.5265Z" fill="#EBEBEB"/>
<path d="M260.459 71.7515H258.324V91.0434H260.459V71.7515Z" fill="#EBEBEB"/>
<path d="M285.89 71.7515H283.754V91.0434H285.89V71.7515Z" fill="#EBEBEB"/>
<path d="M330.462 76.498H309.63V90.8796H330.462V76.498Z" fill="#EBEBEB"/>
<path d="M242.723 133.258H339.77V128.273H242.723V133.258Z" fill="#E0E0E0"/>
<path d="M331.028 128.266H335.306V109.889H331.028V128.266Z" fill="#EBEBEB"/>
<path d="M310.352 128.266H314.63V109.889H310.352V128.266Z" fill="#EBEBEB"/>
<path d="M283.771 127.536L287.987 128.262L291.108 110.152L286.893 109.426L283.771 127.536Z" fill="#EBEBEB"/>
<path d="M325.731 128.273H330.009V112.314H325.731V128.273Z" fill="#EBEBEB"/>
<path d="M315.902 128.273H320.18V112.314H315.902V128.273Z" fill="#EBEBEB"/>
<path d="M291.097 128.273H295.375V112.314H291.097V128.273Z" fill="#EBEBEB"/>
<path d="M301.287 127.324L305.463 128.252L308.926 112.674L304.75 111.746L301.287 127.324Z" fill="#EBEBEB"/>
<path d="M322.041 128.273H324.176V108.981H322.041V128.273Z" fill="#EBEBEB"/>
<path d="M296.603 128.273H298.738V108.981H296.603V128.273Z" fill="#EBEBEB"/>
<path d="M252.045 128.102H272.877V113.721H252.045V128.102Z" fill="#EBEBEB"/>
<path d="M235.647 227.076H320.865C321.7 227.076 322.5 227.408 323.09 227.998C323.68 228.588 324.012 229.389 324.012 230.223V235.044H232.5V230.223C232.5 229.389 232.832 228.588 233.422 227.998C234.012 227.408 234.812 227.076 235.647 227.076Z" fill="#EBEBEB"/>
<path d="M321.773 232.001H234.74H230.432H230.261V284.476H234.74V238.08H321.773V284.476H326.252V238.08V232.001H321.773Z" fill="#F5F5F5"/>
<path d="M51.1349 227.076H136.353C137.187 227.076 137.988 227.408 138.578 227.998C139.168 228.588 139.5 229.389 139.5 230.223V235.044H47.9878V230.223C47.9878 229.389 48.3194 228.588 48.9096 227.998C49.4998 227.408 50.3002 227.076 51.1349 227.076Z" fill="#EBEBEB"/>
<path d="M137.261 232.001H50.2274H45.9197H45.7485V284.476H50.2274V238.08H137.261V284.476H141.739V238.08V232.001H137.261Z" fill="#F5F5F5"/>
<path d="M186 318.105C265.669 318.105 330.254 314.334 330.254 309.683C330.254 305.031 265.669 301.261 186 301.261C106.33 301.261 41.7456 305.031 41.7456 309.683C41.7456 314.334 106.33 318.105 186 318.105Z" fill="#F5F5F5"/>
<path d="M161.79 146.375H160.049V148.964H161.79V168.419H160.302L153.442 200.999L122.194 205.537V219.971H124.806V302.555H122.194V307.607H161.783V307.793H295.502V146.375H161.79ZM130.029 302.54V219.956H161.79V302.54H130.029Z" fill="#78DCFF"/>
<path opacity="0.3" d="M161.79 219.971H258.51V268.197L161.79 297.466V219.971Z" fill="black"/>
<path d="M258.51 146.375H256.769V148.964H258.51V168.419H257.022L250.163 200.999L218.915 205.537V219.971H221.526V302.555H218.915V307.607H258.503V307.793H295.494V146.375H258.51ZM226.749 302.54V219.956H258.51V302.54H226.749Z" fill="#78DCFF"/>
<path opacity="0.2" d="M258.51 146.375H256.769V148.964H258.51V168.419H257.022L250.163 200.999L218.915 205.537V219.971H221.526V302.555H218.915V307.607H258.503V307.793H295.494V146.375H258.51ZM226.749 302.54V219.956H258.51V302.54H226.749Z" fill="black"/>
<path opacity="0.2" d="M130.028 219.971H124.813V302.54H130.028V219.971Z" fill="black"/>
<path opacity="0.2" d="M226.749 219.971H221.533V302.54H226.749V219.971Z" fill="black"/>
<path opacity="0.2" d="M161.79 148.964H258.51V152.401L161.79 150.66V148.964Z" fill="black"/>
<path opacity="0.2" d="M161.79 168.419H258.51L161.79 167.482V168.419Z" fill="black"/>
<path opacity="0.2" d="M125.423 210.299H216.474V204.883L230.498 203.097H145.638L125.423 206.036V210.299Z" fill="black"/>
<path opacity="0.2" d="M153.42 200.999H250.14L221.533 197.309L226.005 172.683H184.78L178.403 199.958L153.42 200.999Z" fill="black"/>
<path d="M129.173 209.525H216.474V205.999H145.905L129.173 208.506V209.525Z" fill="white"/>
<path opacity="0.1" d="M216.466 208.506H129.173V209.525H216.466V208.506Z" fill="black"/>
<path d="M148.011 205.545L141.539 206.847V207.219H143.971L149.782 205.999V205.545H148.011Z" fill="#263238"/>
<path d="M154.023 205.545L147.55 206.847V207.219H149.975L155.793 205.999V205.545H154.023Z" fill="#263238"/>
<path d="M160.034 205.545L153.562 206.847V207.219H155.987L161.798 205.999V205.545H160.034Z" fill="#263238"/>
<path d="M166.046 205.545L159.565 206.847V207.219H161.998L167.809 205.999V205.545H166.046Z" fill="#263238"/>
<path d="M172.05 205.545L165.577 206.847V207.219H168.003L173.821 205.999V205.545H172.05Z" fill="#263238"/>
<path d="M178.061 205.545L171.588 206.847V207.219H174.014L179.824 205.999V205.545H178.061Z" fill="#263238"/>
<path d="M184.073 205.545L177.593 206.847V207.219H180.026L185.836 205.999V205.545H184.073Z" fill="#263238"/>
<path d="M190.077 205.545L183.604 206.847V207.219H186.029L191.848 205.999V205.545H190.077Z" fill="#263238"/>
<path d="M196.089 205.545L189.616 206.847V207.219H192.041L197.852 205.999V205.545H196.089Z" fill="#263238"/>
<path d="M202.1 205.545L195.62 206.847V207.219H198.053L203.863 205.999V205.545H202.1Z" fill="#263238"/>
<path d="M208.104 205.545L201.631 206.847V207.219H204.057L209.875 205.999V205.545H208.104Z" fill="#263238"/>
<path d="M214.115 205.545L207.643 206.847V207.219H210.068L215.886 205.999V205.545H214.115Z" fill="#263238"/>
<path d="M282.809 113.646C281.812 112.002 280.175 113.43 280.175 113.43C280.406 110.291 277.519 108.14 277.519 108.14C277.519 108.14 280.875 108.14 281.343 104.934C281.812 101.727 280.175 103.223 278.635 103.2C277.095 103.178 275.488 107.664 277.519 110.201C279.55 112.738 279.007 117.039 274.32 121.19C273.197 122.237 272.355 123.549 271.872 125.007C272.229 121.198 272.43 115.826 271.307 112.24C269.402 106.154 273.033 104.51 274.082 101.467C275.131 98.4238 271.307 95.8495 271.307 95.8495C271.307 95.8495 274.9 94.2053 273.144 92.3304C271.389 90.4555 267.758 90.7159 267.758 93.1637C267.758 95.6114 270.221 96.5489 270.221 96.5489C270.221 96.5489 273.033 99.4728 273.033 101.013C273.033 102.553 270.221 105.812 270.221 105.812C270.221 105.812 271.508 103.007 268.933 102.888C266.359 102.769 265.533 106.169 266.59 107.687C267.646 109.204 269.402 107.925 269.402 107.925C269.51 109.701 269.779 111.464 270.206 113.192C270.466 114.07 270.347 117.5 270.124 121.071C269.637 119.782 268.855 118.625 267.84 117.693C263.16 113.542 262.632 109.227 264.641 106.704C266.649 104.182 265.065 99.6811 263.525 99.7034C261.984 99.7258 260.348 98.2154 260.816 101.437C261.285 104.658 264.641 104.644 264.641 104.644C264.641 104.644 261.754 106.794 261.984 109.933C261.984 109.933 260.348 108.505 259.351 110.149C257.572 113.073 261.694 114.888 262.386 113.445C262.386 113.445 271.121 119.628 269.015 128.533L269.506 129.277C269.439 130.021 269.402 130.423 269.402 130.423L270.087 130.133L270.831 131.279C270.804 132.572 270.871 133.865 271.031 135.148L273.115 132.067C271.009 123.139 279.744 116.987 279.744 116.987C280.488 118.385 284.587 116.57 282.809 113.646Z" fill="#78DCFF"/>
<path opacity="0.2" d="M282.809 113.646C281.812 112.002 280.175 113.43 280.175 113.43C280.406 110.291 277.519 108.14 277.519 108.14C277.519 108.14 280.875 108.14 281.343 104.934C281.812 101.727 280.175 103.223 278.635 103.2C277.095 103.178 275.488 107.664 277.519 110.201C279.55 112.738 279.007 117.039 274.32 121.19C273.197 122.237 272.355 123.549 271.872 125.007C272.229 121.198 272.43 115.826 271.307 112.24C269.402 106.154 273.033 104.51 274.082 101.467C275.131 98.4238 271.307 95.8495 271.307 95.8495C271.307 95.8495 274.9 94.2053 273.144 92.3304C271.389 90.4555 267.758 90.7159 267.758 93.1637C267.758 95.6114 270.221 96.5489 270.221 96.5489C270.221 96.5489 273.033 99.4728 273.033 101.013C273.033 102.553 270.221 105.812 270.221 105.812C270.221 105.812 271.508 103.007 268.933 102.888C266.359 102.769 265.533 106.169 266.59 107.687C267.646 109.204 269.402 107.925 269.402 107.925C269.51 109.701 269.779 111.464 270.206 113.192C270.466 114.07 270.347 117.5 270.124 121.071C269.637 119.782 268.855 118.625 267.84 117.693C263.16 113.542 262.632 109.227 264.641 106.704C266.649 104.182 265.065 99.6811 263.525 99.7034C261.984 99.7258 260.348 98.2154 260.816 101.437C261.285 104.658 264.641 104.644 264.641 104.644C264.641 104.644 261.754 106.794 261.984 109.933C261.984 109.933 260.348 108.505 259.351 110.149C257.572 113.073 261.694 114.888 262.386 113.445C262.386 113.445 271.121 119.628 269.015 128.533L269.506 129.277C269.439 130.021 269.402 130.423 269.402 130.423L270.087 130.133L270.831 131.279C270.804 132.572 270.871 133.865 271.031 135.148L273.115 132.067C271.009 123.139 279.744 116.987 279.744 116.987C280.488 118.385 284.587 116.57 282.809 113.646Z" fill="black"/>
<path d="M277.519 146.077L274.7 129.947L275.496 125.245H266.62L267.416 129.947L264.604 146.077H277.519Z" fill="#78DCFF"/>
<path opacity="0.5" d="M277.519 146.077L274.7 129.947L275.496 125.245H266.62L267.416 129.947L264.604 146.077H277.519Z" fill="white"/>
<path d="M198.365 131.807L203.328 146.375H188.857L198.365 131.807Z" fill="#78DCFF"/>
<path opacity="0.3" d="M198.365 131.807L203.328 146.375H188.857L198.365 131.807Z" fill="black"/>
<path d="M198.454 146.523L181.908 146.531L186.424 125.178L202.978 125.17L198.454 146.523Z" fill="#78DCFF"/>
<path opacity="0.2" d="M198.454 146.523L181.908 146.531L186.424 125.178L202.978 125.17L198.454 146.523Z" fill="black"/>
<path opacity="0.5" d="M197.323 145.519L183.478 145.445L187.555 126.183L201.408 126.257L197.323 145.519Z" fill="white"/>
<path opacity="0.2" d="M192.696 127.79C192.696 127.79 190.3 128.69 188.135 134.195C186.647 137.975 189.623 138.087 189.623 138.087C189.623 138.087 189.229 140.951 188.47 141.598C187.272 142.61 184.073 142.595 184.073 142.595L183.47 145.445L197.316 145.519L197.941 142.543C197.941 142.543 193.946 142.238 193.67 141.591C193.395 140.943 194.63 137.506 194.63 137.506L195.962 135.832C195.962 135.832 198.938 132.611 198.499 129.962C198.402 129.339 198.14 128.753 197.742 128.264C197.344 127.776 196.823 127.401 196.232 127.18C195.642 126.959 195.003 126.899 194.382 127.006C193.76 127.113 193.178 127.384 192.696 127.79Z" fill="white"/>
<path d="M109.338 246.026L109.606 257.61L110.826 310.01H114.851L116.064 257.61L116.332 246.026H109.338Z" fill="#263238"/>
<path opacity="0.4" d="M109.338 246.026L109.606 257.61L110.826 310.01H114.851L116.064 257.61L116.332 246.026H109.338Z" fill="white"/>
<path opacity="0.2" d="M109.338 246.026L109.606 257.93H116.064L116.332 246.026H109.338Z" fill="black"/>
<path d="M87.4868 309.824L91.1994 246.844H97.2779L92.0773 309.824H87.4868Z" fill="#263238"/>
<path opacity="0.5" d="M92.0847 309.824H87.4868L90.8646 252.498L91.1994 246.77H97.2779L96.8091 252.498L92.0847 309.824Z" fill="white"/>
<path opacity="0.2" d="M97.278 246.77L96.8093 252.722H90.8647L91.1995 246.77H97.278Z" fill="black"/>
<path d="M133.607 309.824L128.399 246.844H134.478L138.198 309.824H133.607Z" fill="#263238"/>
<path opacity="0.5" d="M133.593 309.824L128.868 252.498L128.399 246.77H134.478L134.813 252.498L138.19 309.824H133.593Z" fill="white"/>
<path opacity="0.2" d="M128.399 246.77L128.868 252.722H134.813L134.478 246.77H128.399Z" fill="black"/>
<path d="M137.729 249.024H87.941V244.047C87.941 243.06 88.3329 242.114 89.0306 241.416C89.7282 240.719 90.6744 240.327 91.661 240.327H134.009C134.996 240.327 135.942 240.719 136.64 241.416C137.338 242.114 137.729 243.06 137.729 244.047V249.024Z" fill="#78DCFF"/>
<path d="M87.0556 249.017H138.622C139.448 249.017 140.118 248.347 140.118 247.521V246.167C140.118 245.341 139.448 244.672 138.622 244.672H87.0556C86.2297 244.672 85.5602 245.341 85.5602 246.167V247.521C85.5602 248.347 86.2297 249.017 87.0556 249.017Z" fill="#263238"/>
<path opacity="0.6" d="M87.0556 249.017H138.622C139.448 249.017 140.118 248.347 140.118 247.521V246.167C140.118 245.341 139.448 244.672 138.622 244.672H87.0556C86.2297 244.672 85.5602 245.341 85.5602 246.167V247.521C85.5602 248.347 86.2297 249.017 87.0556 249.017Z" fill="white"/>
<path d="M133.92 144.254C133.92 144.254 130.416 141.531 126.48 141.457C122.544 141.383 113.438 144.336 113.877 154.41C114.316 164.484 113.586 175.45 113.586 175.45L128.816 180.532C128.816 180.532 138.682 163.829 139.344 158.212C140.006 152.595 133.92 144.254 133.92 144.254Z" fill="#263238"/>
<path d="M167.251 196.416L172.027 195.04C172.027 195.04 173.791 190.985 174.378 190.807C174.966 190.628 179.691 189.676 179.691 189.676L177.637 197.711C177.637 197.711 175.361 198.775 174.661 198.455L168.188 200.412L167.251 196.416Z" fill="#B97964"/>
<path d="M133.704 175.763C138.666 179.646 144.596 195.605 150.593 197.718C154.707 199.169 169.699 195.345 169.699 195.345L171.588 200.441C171.588 200.441 156.82 207.137 147.178 205.545C138.622 204.154 128.102 190.814 128.102 190.814L133.704 175.763Z" fill="#78DCFF"/>
<path opacity="0.5" d="M133.704 175.763C138.666 179.646 144.596 195.605 150.593 197.718C154.707 199.169 169.699 195.345 169.699 195.345L171.588 200.441C171.588 200.441 156.82 207.137 147.178 205.545C138.622 204.154 128.102 190.814 128.102 190.814L133.704 175.763Z" fill="white"/>
<path d="M145.072 207.762L139.336 195.836L140.564 195.062L145.98 206.386L145.072 207.762Z" fill="#78DCFF"/>
<path d="M127.276 204.31L134.857 204.57C134.857 204.57 142.297 200.545 143.361 200.449C144.425 200.352 147.483 203.879 147.781 204.764C148.078 205.649 139.983 209.89 138.369 209.756C137.917 209.731 137.477 209.606 137.079 209.39C136.681 209.173 136.337 208.872 136.07 208.506L127.663 209.012L127.276 204.31Z" fill="#B97964"/>
<path d="M176.35 283.739L171.455 284.915L168.977 278.167L166.73 272.021L172.303 269.648L174.446 277.095L176.35 283.739Z" fill="#B97964"/>
<path d="M170.264 284.588C170.145 284.045 176.878 282.876 176.878 282.876C176.878 282.876 181.952 286.038 186.134 286.016C190.315 285.994 188.678 288.903 184.251 289.967L173.307 292.608C170.16 293.367 171.484 290.212 170.264 284.588Z" fill="#78DCFF"/>
<path d="M179.973 283.806C179.251 283.788 178.531 283.703 177.823 283.553C177.804 283.557 177.783 283.557 177.764 283.553C177.742 283.545 177.723 283.529 177.712 283.509C177.708 283.479 177.708 283.449 177.712 283.419C177.712 283.345 177.905 281.671 178.716 281.083C178.835 280.99 178.974 280.924 179.123 280.892C179.271 280.86 179.424 280.862 179.572 280.897C179.914 280.972 180.1 281.12 180.145 281.351C180.212 281.701 179.817 282.169 179.349 282.586C179.817 282.386 180.331 282.316 180.837 282.385C180.934 282.411 181.025 282.457 181.105 282.52C181.184 282.583 181.25 282.661 181.298 282.75C181.375 282.858 181.417 282.988 181.417 283.122C181.417 283.255 181.375 283.385 181.298 283.494C181.109 283.632 180.895 283.731 180.667 283.785C180.44 283.838 180.204 283.846 179.973 283.806ZM178.404 283.293C179.482 283.471 180.784 283.546 181.03 283.211C181.03 283.211 181.119 283.099 181.03 282.854C181.004 282.807 180.969 282.767 180.927 282.735C180.885 282.703 180.836 282.68 180.784 282.668C180.204 282.504 179.103 282.951 178.404 283.293ZM179.304 281.165C179.155 281.164 179.011 281.214 178.895 281.306C178.454 281.771 178.174 282.366 178.099 283.003C178.991 282.393 179.817 281.649 179.765 281.344C179.765 281.254 179.572 281.202 179.475 281.18L179.304 281.165Z" fill="#263238"/>
<path opacity="0.2" d="M174.446 277.095L168.977 278.167L166.73 272.021L172.303 269.648L174.446 277.095Z" fill="black"/>
<path d="M130.706 216.058L144.708 204.533L167.251 206.23L152.177 215.782L130.706 216.058Z" fill="#263238"/>
<path opacity="0.8" d="M130.706 216.058L144.708 204.533L167.251 206.23L152.177 215.782L130.706 216.058Z" fill="white"/>
<path d="M173.954 273.532L167.169 276.024C167.169 276.024 149.068 230.767 145.348 230.64C141.628 230.514 103.751 247.894 94.2572 238.237C84.7638 228.58 98.4906 205.344 98.4906 205.344C98.4906 205.344 121.324 202.086 123.043 207.242C123.466 208.761 123.789 210.307 124.01 211.869C124.27 213.447 124.449 214.771 124.449 214.771C125.193 214.592 148.078 208.678 157.11 214.771C166.299 220.968 173.954 273.532 173.954 273.532Z" fill="#263238"/>
<path d="M134.924 303.046L130.051 301.797L130.989 294.803L131.859 288.39L137.886 288.933L136.323 296.403L134.924 303.046Z" fill="#B97964"/>
<path d="M128.712 301.566C128.712 301.008 135.542 301.521 135.542 301.521C135.542 301.521 139.686 305.836 143.726 306.848C147.766 307.86 145.482 310.271 140.929 310.219L129.664 310.085C126.48 310.04 128.534 307.309 128.712 301.566Z" fill="#78DCFF"/>
<path d="M139.128 303.314C138.137 303.184 137.178 302.879 136.293 302.414L136.249 302.377C136.232 302.36 136.219 302.34 136.212 302.317C136.208 302.303 136.208 302.287 136.212 302.273C136.204 302.246 136.204 302.218 136.212 302.191C136.212 302.116 136.829 300.539 137.759 300.167C137.899 300.108 138.05 300.081 138.202 300.088C138.354 300.094 138.502 300.134 138.637 300.204C138.949 300.353 139.098 300.547 139.083 300.777C139.083 301.134 138.563 301.521 138.005 301.782C138.523 301.696 139.055 301.761 139.537 301.968C139.625 302.016 139.701 302.083 139.763 302.162C139.824 302.241 139.869 302.332 139.894 302.429C139.945 302.556 139.955 302.696 139.923 302.829C139.891 302.963 139.819 303.083 139.716 303.173C139.542 303.286 139.334 303.336 139.128 303.314ZM136.896 302.31C137.893 302.741 139.128 303.136 139.463 302.875C139.463 302.875 139.582 302.786 139.515 302.518C139.501 302.466 139.477 302.417 139.444 302.375C139.411 302.333 139.369 302.298 139.321 302.273C138.875 301.99 137.707 302.146 136.941 302.31H136.896ZM138.131 300.442C138.039 300.444 137.948 300.465 137.863 300.502C137.314 300.854 136.896 301.377 136.673 301.99C137.692 301.618 138.674 301.097 138.689 300.792C138.689 300.695 138.548 300.606 138.451 300.561C138.368 300.503 138.275 300.463 138.176 300.442H138.131Z" fill="#263238"/>
<path opacity="0.2" d="M136.286 296.551L130.951 294.937L131.844 288.457L137.878 288.962L136.286 296.551Z" fill="black"/>
<path d="M164.364 273.546L174.252 270.184L174.669 274.238L167.177 276.887L164.364 273.546Z" fill="#78DCFF"/>
<path d="M110.655 240.557C110.655 240.557 112.202 240.595 136.152 239.479C136.152 239.479 132.573 269.425 130.616 291.841L137.781 293.062C137.781 293.062 154.893 245.059 154.707 237.433C154.521 229.807 145.779 227.575 145.779 227.575C145.779 227.575 128.712 237.433 110.655 240.557Z" fill="#263238"/>
<path opacity="0.3" d="M110.655 240.557C110.655 240.557 112.202 240.595 136.152 239.479C136.152 239.479 132.573 269.425 130.616 291.841L137.781 293.062C137.781 293.062 154.893 245.059 154.707 237.433C154.521 229.807 145.779 227.575 145.779 227.575C145.779 227.575 128.712 237.433 110.655 240.557Z" fill="black"/>
<path d="M129.567 289.669L139.41 290.785L137.513 294.646L129.545 293.62L129.567 289.669Z" fill="#78DCFF"/>
<path opacity="0.3" d="M124.449 214.748L111.057 217.531C111.057 217.531 118.437 213.454 123.972 211.847C124.248 213.424 124.449 214.748 124.449 214.748Z" fill="black"/>
<path d="M99.0413 201.773L98.4907 205.329L123.043 207.219L123.69 203.023L99.0413 201.773Z" fill="#263238"/>
<path opacity="0.2" d="M99.0413 201.773L98.4907 205.329L123.043 207.219L123.69 203.023L99.0413 201.773Z" fill="black"/>
<path d="M107.42 201.537L106.207 201.413L105.571 207.592L106.785 207.717L107.42 201.537Z" fill="#263238"/>
<path d="M119.027 202.942L113.64 202.619L113.395 206.704L118.782 207.027L119.027 202.942Z" fill="white"/>
<path d="M122.51 202.205L121.296 202.08L120.661 208.26L121.874 208.385L122.51 202.205Z" fill="#263238"/>
<path d="M99.7852 201.773C99.7852 201.773 97.2779 180.792 105.246 167.4C105.246 167.4 122.314 160.622 133.704 175.763C133.704 175.763 135.408 191.089 132.581 194.073C129.754 197.056 124.047 205.545 124.047 205.545L99.7852 201.773Z" fill="#78DCFF"/>
<path opacity="0.6" d="M99.7852 201.773C99.7852 201.773 97.2779 180.792 105.246 167.4C105.246 167.4 122.314 160.622 133.704 175.763C133.704 175.763 135.408 191.089 132.581 194.073C129.754 197.056 124.047 205.545 124.047 205.545L99.7852 201.773Z" fill="white"/>
<path d="M105.246 167.4C113.281 165.391 112.009 195.397 113.356 199.072C114.702 202.748 133.399 203.112 133.399 203.112L133.005 209.54C133.005 209.54 111.577 211.266 105.692 206.401C99.8074 201.535 97.7242 169.275 105.246 167.4Z" fill="#78DCFF"/>
<path opacity="0.5" d="M105.246 167.4C113.281 165.391 112.009 195.397 113.356 199.072C114.702 202.748 133.399 203.112 133.399 203.112L133.005 209.54C133.005 209.54 111.577 211.266 105.692 206.401C99.8074 201.535 97.7242 169.275 105.246 167.4Z" fill="white"/>
<path d="M128.102 142.104C128.102 142.104 130.512 139.604 135.185 142.104C139.857 144.604 147.349 150.854 144.41 160.459C141.471 170.064 137.796 180.071 139.336 184.78C140.876 189.49 135.869 189.668 135.869 189.668C135.869 189.668 138.339 188.924 137.551 185.74C136.762 182.555 137.551 171.098 137.551 171.098C137.551 171.098 134.701 179.282 131.904 177.794C129.106 176.306 126.896 170.436 121.525 168.546C117.552 167.17 128.102 142.104 128.102 142.104Z" fill="#263238"/>
<path d="M124.449 190.963C124.412 190.963 124.377 190.952 124.346 190.932C124.316 190.913 124.292 190.884 124.277 190.851C123.846 189.914 113.616 167.787 113.393 166.031C113.388 166 113.392 165.969 113.403 165.94C113.415 165.911 113.435 165.886 113.46 165.867C113.482 165.846 113.51 165.831 113.54 165.824C113.57 165.817 113.602 165.82 113.631 165.83C114.055 165.964 123.98 169.119 125.594 172.601C127.209 176.083 124.739 190.211 124.627 190.806C124.622 190.846 124.604 190.883 124.576 190.912C124.548 190.94 124.511 190.958 124.471 190.963H124.449ZM113.832 166.284C114.576 168.784 120.81 182.466 124.359 190.152C124.813 187.384 126.591 175.725 125.245 172.757C123.898 169.788 115.573 166.864 113.832 166.284Z" fill="#263238"/>
<path d="M113.579 166.009C114.599 165.258 115.715 164.648 116.897 164.194C118.951 163.383 124.189 167.728 124.91 169.461C125.632 171.195 120.446 173.025 120.446 173.025L113.579 166.009Z" fill="#78DCFF"/>
<path opacity="0.3" d="M113.579 166.009C114.599 165.258 115.715 164.648 116.897 164.194C118.951 163.383 124.189 167.728 124.91 169.461C125.632 171.195 120.446 173.025 120.446 173.025L113.579 166.009Z" fill="white"/>
<path d="M123.809 168.546C123.705 170.034 124.501 170.436 124.501 170.436C124.527 170.889 124.45 171.342 124.274 171.761C124.099 172.179 123.83 172.552 123.488 172.851C123.147 173.15 122.741 173.366 122.303 173.484C121.864 173.602 121.405 173.618 120.959 173.531C116.414 172.608 115.506 166.939 115.506 166.939C118.98 165.942 120.089 162.334 120.446 160.154C120.542 159.586 120.597 159.011 120.61 158.435L126.472 162.981C125.856 163.806 125.299 164.674 124.806 165.577C124.274 166.489 123.935 167.499 123.809 168.546Z" fill="#B97964"/>
<path opacity="0.2" d="M126.48 162.981C125.864 163.806 125.307 164.674 124.813 165.577C124.281 166.491 123.942 167.504 123.817 168.553C120.305 168.129 120.476 160.213 120.476 160.213V160.161C120.572 159.593 120.627 159.018 120.64 158.442L126.48 162.981Z" fill="black"/>
<path d="M116.897 164.193C116.897 164.193 119.873 168.486 122.202 169.461C124.531 170.436 124.91 169.461 124.91 169.461L126.086 172.288C126.086 172.288 126.086 176.685 120.989 176.707C116.815 176.707 113.549 166.009 113.549 166.009L116.897 164.193Z" fill="#78DCFF"/>
<path opacity="0.5" d="M116.897 164.193C116.897 164.193 119.873 168.486 122.202 169.461C124.531 170.436 124.91 169.461 124.91 169.461L126.086 172.288C126.086 172.288 126.086 176.685 120.989 176.707C116.815 176.707 113.549 166.009 113.549 166.009L116.897 164.193Z" fill="white"/>
<path d="M133.399 147.402C139.172 150.02 139.626 153.956 137.35 160.102C134.507 167.78 130.46 172.311 123.958 167.445C115.134 160.838 123.809 143.049 133.399 147.402Z" fill="#B97964"/>
<path d="M133.764 158.085C133.836 159.157 134.036 160.216 134.359 161.24C134.081 161.401 133.764 161.483 133.442 161.477C133.121 161.47 132.807 161.375 132.536 161.203L133.764 158.085Z" fill="#A24E3F"/>
<path d="M130.445 156.002C130.237 156.486 129.813 156.746 129.493 156.627C129.173 156.508 129.084 155.995 129.285 155.511C129.486 155.028 129.917 154.767 130.237 154.894C130.557 155.02 130.646 155.496 130.445 156.002Z" fill="#263238"/>
<path d="M130.088 154.856L131.309 154.894C131.309 154.894 130.416 155.548 130.088 154.856Z" fill="#263238"/>
<path d="M136.449 158.472C136.241 158.956 135.817 159.216 135.497 159.097C135.177 158.978 135.088 158.457 135.289 157.981C135.489 157.505 135.921 157.237 136.241 157.356C136.561 157.475 136.65 157.966 136.449 158.472Z" fill="#263238"/>
<path d="M136.092 157.297L137.312 157.334C137.312 157.334 136.42 157.989 136.092 157.297Z" fill="#263238"/>
<path d="M132.194 152.26C132.144 152.258 132.096 152.245 132.052 152.223C131.659 151.984 131.218 151.838 130.761 151.794C130.303 151.75 129.842 151.81 129.411 151.97C129.347 152.001 129.273 152.006 129.205 151.983C129.137 151.96 129.082 151.911 129.05 151.847C129.019 151.783 129.014 151.709 129.037 151.641C129.06 151.574 129.109 151.518 129.173 151.486C129.685 151.284 130.238 151.203 130.786 151.251C131.335 151.298 131.865 151.473 132.335 151.762C132.365 151.78 132.392 151.804 132.413 151.833C132.434 151.861 132.449 151.894 132.458 151.929C132.466 151.963 132.467 151.999 132.462 152.035C132.456 152.07 132.443 152.103 132.424 152.134C132.399 152.172 132.365 152.204 132.325 152.226C132.285 152.248 132.24 152.26 132.194 152.26Z" fill="#263238"/>
<path d="M138.592 155.444C138.546 155.443 138.5 155.43 138.46 155.406C138.42 155.383 138.386 155.35 138.362 155.31C138.172 154.954 137.906 154.644 137.581 154.403C137.257 154.162 136.883 153.997 136.487 153.919C136.452 153.917 136.417 153.907 136.386 153.892C136.354 153.876 136.326 153.854 136.303 153.828C136.28 153.801 136.262 153.77 136.251 153.737C136.24 153.703 136.235 153.668 136.237 153.633C136.24 153.598 136.249 153.563 136.265 153.532C136.281 153.5 136.302 153.472 136.329 153.449C136.356 153.426 136.387 153.408 136.42 153.397C136.453 153.386 136.489 153.381 136.524 153.383C137.007 153.466 137.464 153.657 137.862 153.941C138.261 154.226 138.589 154.598 138.823 155.028C138.859 155.089 138.87 155.162 138.853 155.232C138.837 155.301 138.794 155.361 138.734 155.4C138.692 155.428 138.643 155.443 138.592 155.444Z" fill="#263238"/>
<path d="M122.671 154.269C122.671 154.269 127.521 150.75 128.779 146.903C128.779 146.903 142.342 147.416 137.632 159.291C137.632 159.291 143.436 149.485 133.607 144.746C123.779 140.006 117.239 154.559 120.401 161.21C120.401 161.21 119.65 156.478 122.671 154.269Z" fill="#263238"/>
<path d="M123.057 155.913C123.306 155.22 123.269 154.457 122.955 153.792C122.641 153.126 122.076 152.613 121.383 152.364C119.501 151.747 116.986 155.035 121.034 157.937C121.614 158.353 122.261 157.892 123.057 155.913Z" fill="#B97964"/>
<path d="M130.832 163.74H130.788C129.981 163.645 129.236 163.262 128.69 162.662C128.143 162.062 127.831 161.285 127.812 160.473C127.812 160.402 127.84 160.334 127.89 160.284C127.94 160.234 128.008 160.206 128.079 160.206C128.15 160.206 128.219 160.234 128.269 160.284C128.319 160.334 128.347 160.402 128.347 160.473C128.358 161.157 128.62 161.812 129.082 162.315C129.544 162.819 130.175 163.135 130.854 163.204C130.925 163.217 130.988 163.256 131.03 163.315C131.071 163.373 131.089 163.445 131.078 163.516C131.068 163.576 131.038 163.63 130.994 163.671C130.949 163.711 130.892 163.735 130.832 163.74Z" fill="#263238"/>
<path d="M133.548 179.907H133.391C132.156 179.862 131.159 178.106 130.259 176.41C129.813 175.41 129.184 174.502 128.407 173.732C128.387 173.718 128.369 173.7 128.356 173.679C128.343 173.658 128.334 173.635 128.33 173.611C128.326 173.587 128.327 173.562 128.332 173.538C128.338 173.514 128.348 173.491 128.362 173.471C128.376 173.451 128.394 173.434 128.415 173.421C128.436 173.408 128.459 173.399 128.483 173.395C128.507 173.391 128.532 173.392 128.556 173.397C128.58 173.402 128.602 173.413 128.622 173.427C129.307 173.895 129.924 175.026 130.586 176.232C131.427 177.72 132.38 179.498 133.406 179.535C133.872 179.563 134.338 179.489 134.771 179.317C135.205 179.144 135.595 178.878 135.914 178.538C138.54 175.837 138.146 168.643 138.146 168.576C138.143 168.527 138.16 168.479 138.192 168.442C138.223 168.404 138.268 168.381 138.317 168.375C138.341 168.372 138.366 168.374 138.39 168.381C138.414 168.388 138.436 168.4 138.455 168.416C138.474 168.432 138.489 168.452 138.5 168.475C138.511 168.497 138.517 168.521 138.518 168.546C138.518 168.851 138.949 175.986 136.211 178.791C135.87 179.153 135.457 179.439 134.998 179.631C134.539 179.824 134.045 179.918 133.548 179.907Z" fill="#263238"/>
<path d="M136.554 192.123C136.504 192.123 136.457 192.104 136.422 192.069C136.387 192.034 136.368 191.986 136.368 191.937C136.368 191.888 136.387 191.84 136.422 191.806C136.457 191.771 136.504 191.751 136.554 191.751C137.239 191.668 137.876 191.355 138.361 190.863C138.846 190.371 139.151 189.73 139.225 189.043C139.299 188.358 139.299 187.443 139.306 186.394C139.306 183.537 139.351 179.624 140.728 175.703C142.58 170.406 145.348 157.311 144.113 154.03C144.098 154.007 144.089 153.981 144.086 153.953C144.083 153.926 144.087 153.898 144.096 153.872C144.105 153.846 144.119 153.823 144.138 153.803C144.158 153.783 144.181 153.768 144.207 153.759C144.233 153.749 144.26 153.745 144.288 153.748C144.315 153.75 144.341 153.759 144.365 153.773C144.389 153.786 144.409 153.805 144.425 153.828C144.44 153.851 144.451 153.877 144.455 153.904C145.727 157.252 142.967 170.488 141.077 175.83C139.723 179.683 139.701 183.567 139.678 186.394C139.678 187.458 139.678 188.373 139.589 189.088C139.498 189.851 139.157 190.563 138.618 191.112C138.08 191.661 137.375 192.017 136.613 192.123H136.554Z" fill="#263238"/>
<path d="M124.449 190.777C125.006 191.844 125.338 193.014 125.424 194.214C125.349 195.613 122.016 195.36 124.449 190.777Z" fill="#78DCFF"/>
<path opacity="0.6" d="M170.264 284.588C170.145 284.045 176.878 282.876 176.878 282.876C176.878 282.876 181.952 286.038 186.134 286.016C190.315 285.994 188.678 288.903 184.251 289.967L173.307 292.608C170.16 293.367 171.484 290.212 170.264 284.588Z" fill="white"/>
<path opacity="0.6" d="M128.712 301.566C128.712 301.008 135.542 301.521 135.542 301.521C135.542 301.521 139.686 305.836 143.726 306.848C147.766 307.86 145.482 310.271 140.929 310.219L129.664 310.085C126.48 310.04 128.534 307.309 128.712 301.566Z" fill="white"/>
<path d="M225.008 170.525L219.413 199.392C219.413 199.392 202.978 199.467 197.093 200.969C197.093 200.969 184.207 198.737 177.392 198.737L184.608 170.465C184.899 170.369 198.343 170.659 203.35 172.623C203.327 172.683 216.861 170.331 225.008 170.525Z" fill="#F5F5F5"/>
<path opacity="0.1" d="M203.328 172.683L197.071 200.999C197.071 200.999 184.185 198.767 177.37 198.767L184.586 170.495C184.877 170.428 198.321 170.719 203.328 172.683Z" fill="black"/>
<g opacity="0.2">
<path d="M200.478 175.949H200.389C196.505 173.88 186.104 173.784 186 173.784C185.951 173.784 185.903 173.764 185.868 173.729C185.834 173.694 185.814 173.647 185.814 173.598C185.814 173.548 185.834 173.501 185.868 173.466C185.903 173.431 185.951 173.412 186 173.412C186.431 173.412 196.602 173.508 200.567 175.644C200.589 175.655 200.608 175.671 200.623 175.69C200.639 175.709 200.65 175.731 200.657 175.755C200.664 175.778 200.666 175.803 200.664 175.827C200.661 175.852 200.654 175.875 200.642 175.897C200.622 175.919 200.596 175.935 200.567 175.945C200.538 175.954 200.508 175.955 200.478 175.949Z" fill="black"/>
</g>
<g opacity="0.2">
<path d="M205.753 175.949C205.71 175.948 205.668 175.933 205.634 175.906C205.601 175.879 205.577 175.842 205.567 175.8C205.558 175.752 205.569 175.702 205.597 175.661C205.625 175.621 205.667 175.593 205.716 175.584C206.199 175.495 217.463 173.441 221.555 173.955C221.58 173.958 221.604 173.965 221.625 173.978C221.646 173.99 221.665 174.006 221.68 174.025C221.696 174.044 221.707 174.067 221.714 174.09C221.72 174.114 221.722 174.139 221.719 174.163C221.716 174.188 221.709 174.211 221.696 174.233C221.684 174.254 221.668 174.273 221.649 174.288C221.63 174.303 221.607 174.315 221.584 174.321C221.56 174.328 221.535 174.33 221.511 174.327C217.471 173.821 205.887 175.926 205.783 175.949H205.753Z" fill="black"/>
</g>
<g opacity="0.2">
<path d="M199.69 179.364C199.663 179.371 199.635 179.371 199.608 179.364C195.717 177.295 185.316 177.199 185.211 177.199C185.161 177.197 185.114 177.176 185.079 177.139C185.045 177.103 185.025 177.055 185.025 177.005C185.027 176.957 185.048 176.912 185.082 176.878C185.117 176.845 185.163 176.827 185.211 176.827C185.643 176.827 195.813 176.923 199.779 179.059C199.822 179.081 199.854 179.119 199.87 179.165C199.885 179.211 199.882 179.261 199.861 179.304C199.839 179.327 199.812 179.344 199.782 179.354C199.753 179.365 199.721 179.368 199.69 179.364Z" fill="black"/>
</g>
<g opacity="0.2">
<path d="M204.964 179.364C204.915 179.364 204.868 179.344 204.833 179.309C204.798 179.274 204.778 179.227 204.778 179.178C204.778 179.128 204.798 179.081 204.833 179.046C204.868 179.011 204.915 178.992 204.964 178.992C205.44 178.902 216.705 176.856 220.797 177.37C220.821 177.372 220.845 177.38 220.866 177.392C220.888 177.404 220.907 177.42 220.922 177.44C220.937 177.459 220.949 177.481 220.955 177.505C220.962 177.529 220.963 177.553 220.96 177.578C220.953 177.626 220.927 177.669 220.888 177.699C220.849 177.728 220.8 177.741 220.752 177.734C216.712 177.228 205.128 179.334 205.031 179.356L204.964 179.364Z" fill="black"/>
</g>
<g opacity="0.2">
<path d="M198.908 182.771C198.879 182.778 198.848 182.778 198.819 182.771C194.928 180.703 184.527 180.606 184.422 180.606C184.398 180.606 184.374 180.602 184.352 180.592C184.33 180.583 184.31 180.569 184.293 180.551C184.277 180.534 184.264 180.514 184.255 180.491C184.247 180.468 184.243 180.444 184.244 180.42C184.244 180.371 184.263 180.324 184.298 180.289C184.333 180.254 184.38 180.234 184.43 180.234C184.861 180.234 195.024 180.331 198.99 182.466C199.012 182.477 199.032 182.493 199.048 182.512C199.064 182.53 199.076 182.552 199.084 182.576C199.092 182.599 199.094 182.624 199.092 182.649C199.09 182.673 199.083 182.697 199.072 182.719C199.05 182.74 199.024 182.756 198.996 182.765C198.968 182.774 198.938 182.776 198.908 182.771Z" fill="black"/>
</g>
<g opacity="0.2">
<path d="M204.176 182.771C204.133 182.77 204.093 182.755 204.06 182.728C204.028 182.701 204.005 182.664 203.997 182.622C203.992 182.598 203.991 182.572 203.996 182.548C204 182.523 204.01 182.5 204.024 182.479C204.038 182.458 204.056 182.44 204.077 182.427C204.098 182.413 204.121 182.403 204.146 182.399C204.622 182.317 215.886 180.264 219.986 180.777C220.034 180.784 220.077 180.81 220.106 180.849C220.135 180.888 220.148 180.937 220.142 180.985C220.134 181.034 220.109 181.078 220.07 181.109C220.031 181.139 219.983 181.153 219.934 181.149C215.901 180.636 204.31 182.749 204.213 182.771H204.176Z" fill="black"/>
</g>
<g opacity="0.2">
<path d="M198.12 186.179H198.031C194.147 184.11 183.746 184.014 183.642 184.014C183.592 184.014 183.545 183.994 183.51 183.959C183.475 183.924 183.456 183.877 183.456 183.828C183.456 183.778 183.475 183.731 183.51 183.696C183.545 183.661 183.592 183.642 183.642 183.642C184.073 183.642 194.236 183.738 198.209 185.874C198.231 185.885 198.25 185.901 198.265 185.92C198.28 185.939 198.292 185.961 198.299 185.985C198.306 186.008 198.308 186.033 198.305 186.057C198.303 186.081 198.295 186.105 198.283 186.127C198.263 186.149 198.237 186.165 198.209 186.175C198.18 186.184 198.149 186.185 198.12 186.179Z" fill="black"/>
</g>
<g opacity="0.2">
<path d="M203.395 186.179C203.351 186.18 203.309 186.165 203.275 186.138C203.241 186.111 203.217 186.073 203.209 186.03C203.2 185.982 203.211 185.932 203.238 185.891C203.266 185.851 203.309 185.823 203.357 185.814C203.833 185.725 215.105 183.671 219.197 184.185C219.221 184.188 219.245 184.195 219.267 184.208C219.288 184.22 219.307 184.236 219.322 184.255C219.337 184.274 219.348 184.297 219.355 184.32C219.362 184.344 219.364 184.369 219.361 184.393C219.358 184.418 219.35 184.441 219.338 184.463C219.326 184.484 219.31 184.503 219.29 184.518C219.271 184.533 219.249 184.545 219.225 184.551C219.202 184.558 219.177 184.56 219.152 184.557C215.113 184.051 203.528 186.156 203.424 186.179H203.395Z" fill="black"/>
</g>
<g opacity="0.2">
<path d="M197.331 189.594C197.304 189.601 197.276 189.601 197.249 189.594C193.358 187.518 182.957 187.429 182.853 187.429C182.803 187.427 182.755 187.405 182.721 187.369C182.686 187.333 182.666 187.285 182.667 187.235C182.668 187.187 182.689 187.142 182.724 187.108C182.758 187.075 182.804 187.057 182.853 187.057C183.284 187.057 193.455 187.153 197.42 189.289C197.441 189.3 197.46 189.315 197.475 189.333C197.491 189.351 197.502 189.373 197.509 189.396C197.516 189.419 197.518 189.443 197.516 189.466C197.513 189.49 197.506 189.513 197.494 189.534C197.474 189.557 197.449 189.575 197.42 189.585C197.392 189.596 197.361 189.599 197.331 189.594Z" fill="black"/>
</g>
<g opacity="0.2">
<path d="M202.606 189.594C202.557 189.594 202.509 189.574 202.474 189.539C202.44 189.504 202.42 189.457 202.42 189.408C202.42 189.358 202.44 189.311 202.474 189.276C202.509 189.241 202.557 189.222 202.606 189.222C203.082 189.132 214.346 187.086 218.438 187.6C218.463 187.602 218.486 187.61 218.508 187.622C218.529 187.634 218.548 187.65 218.564 187.67C218.579 187.689 218.59 187.711 218.597 187.735C218.603 187.759 218.605 187.783 218.602 187.808C218.593 187.855 218.566 187.897 218.528 187.926C218.489 187.955 218.442 187.969 218.394 187.964C214.354 187.458 202.77 189.564 202.673 189.586L202.606 189.594Z" fill="black"/>
</g>
<g opacity="0.2">
<path d="M196.55 193.001H196.46C192.569 190.933 182.168 190.836 182.064 190.836C182.015 190.836 181.967 190.817 181.932 190.782C181.898 190.747 181.878 190.7 181.878 190.65C181.88 190.602 181.9 190.555 181.934 190.521C181.969 190.486 182.015 190.466 182.064 190.464C182.495 190.464 192.658 190.561 196.624 192.696C196.646 192.707 196.666 192.723 196.682 192.741C196.698 192.76 196.71 192.782 196.718 192.806C196.726 192.829 196.729 192.854 196.726 192.879C196.724 192.903 196.717 192.927 196.706 192.949C196.685 192.969 196.661 192.984 196.634 192.993C196.607 193.002 196.578 193.005 196.55 193.001Z" fill="black"/>
</g>
<g opacity="0.2">
<path d="M201.817 193.001C201.775 193 201.734 192.985 201.702 192.958C201.669 192.931 201.647 192.894 201.639 192.852C201.633 192.828 201.633 192.802 201.637 192.778C201.642 192.753 201.652 192.73 201.666 192.709C201.679 192.688 201.697 192.67 201.718 192.656C201.739 192.643 201.763 192.633 201.787 192.629C202.264 192.547 213.528 190.494 217.62 191.007C217.644 191.01 217.668 191.017 217.69 191.029C217.711 191.041 217.73 191.058 217.745 191.077C217.76 191.096 217.772 191.119 217.778 191.142C217.785 191.166 217.787 191.191 217.783 191.215C217.776 191.264 217.75 191.308 217.712 191.338C217.673 191.369 217.624 191.383 217.575 191.379C213.535 190.866 201.951 192.979 201.854 193.001H201.817Z" fill="black"/>
</g>
<g opacity="0.2">
<path d="M195.761 196.416C195.732 196.423 195.701 196.423 195.672 196.416C191.788 194.348 181.387 194.251 181.283 194.251C181.233 194.251 181.186 194.232 181.151 194.197C181.116 194.162 181.097 194.115 181.097 194.065C181.097 194.016 181.116 193.969 181.151 193.934C181.186 193.899 181.233 193.879 181.283 193.879C181.714 193.879 191.877 193.976 195.85 196.111C195.892 196.136 195.923 196.176 195.937 196.223C195.951 196.27 195.946 196.321 195.925 196.364C195.904 196.386 195.878 196.402 195.849 196.411C195.821 196.42 195.79 196.422 195.761 196.416Z" fill="black"/>
</g>
<g opacity="0.2">
<path d="M201.036 196.416C200.993 196.417 200.95 196.403 200.916 196.375C200.882 196.348 200.859 196.31 200.85 196.267C200.841 196.219 200.852 196.169 200.88 196.129C200.908 196.088 200.951 196.061 200.999 196.051C201.475 195.962 212.747 193.909 216.839 194.422C216.887 194.429 216.93 194.455 216.959 194.494C216.989 194.533 217.001 194.582 216.995 194.63C216.992 194.655 216.985 194.679 216.973 194.7C216.961 194.722 216.944 194.741 216.925 194.756C216.906 194.771 216.883 194.782 216.86 194.789C216.836 194.795 216.811 194.797 216.787 194.794C212.754 194.281 201.163 196.394 201.066 196.416H201.036Z" fill="black"/>
</g>
</svg>
