<svg width="131" height="24" viewBox="0 0 131 24" fill="none" xmlns="http://www.w3.org/2000/svg">
<path d="M15.9806 3.80388C15.8871 3.33646 15.4767 3 15 3C14.5233 3 14.1129 3.33646 14.0194 3.80388L13.7809 4.99644C13.7017 5.3923 13.3923 5.70174 12.9964 5.78091L11.8039 6.01942C11.3365 6.1129 11 6.52332 11 7C11 7.47668 11.3365 7.8871 11.8039 7.98058L12.9964 8.21909C13.3923 8.29826 13.7017 8.6077 13.7809 9.00356L14.0194 10.1961C14.1129 10.6635 14.5233 11 15 11C15.4767 11 15.8871 10.6635 15.9806 10.1961L16.2191 9.00356C16.2983 8.6077 16.6077 8.29826 17.0036 8.21909L18.1961 7.98058C18.6635 7.8871 19 7.47668 19 7C19 6.52332 18.6635 6.1129 18.1961 6.01942L17.0036 5.78091C16.6077 5.70174 16.2983 5.3923 16.2191 4.99644L15.9806 3.80388Z" fill="#B8EBFF"/>
<path d="M6.94868 7.68377C6.81257 7.27543 6.43043 7 6 7C5.56957 7 5.18743 7.27543 5.05132 7.68377L4.36754 9.73509C4.26801 10.0337 4.03369 10.268 3.73509 10.3675L1.68377 11.0513C1.27543 11.1874 1 11.5696 1 12C1 12.4304 1.27543 12.8126 1.68377 12.9487L3.73509 13.6325C4.03369 13.732 4.26801 13.9663 4.36754 14.2649L5.05132 16.3162C5.18743 16.7246 5.56957 17 6 17C6.43043 17 6.81257 16.7246 6.94868 16.3162L7.63246 14.2649C7.73199 13.9663 7.96631 13.732 8.26491 13.6325L10.3162 12.9487C10.7246 12.8126 11 12.4304 11 12C11 11.5696 10.7246 11.1874 10.3162 11.0513L8.26491 10.3675C7.96631 10.268 7.73199 10.0337 7.63246 9.73509L6.94868 7.68377Z" fill="#B8EBFF"/>
<path d="M13.9487 15.6838C13.8126 15.2754 13.4304 15 13 15C12.5696 15 12.1874 15.2754 12.0513 15.6838L11.8675 16.2351C11.768 16.5337 11.5337 16.768 11.2351 16.8675L10.6838 17.0513C10.2754 17.1874 10 17.5696 10 18C10 18.4304 10.2754 18.8126 10.6838 18.9487L11.2351 19.1325C11.5337 19.232 11.768 19.4663 11.8675 19.7649L12.0513 20.3162C12.1874 20.7246 12.5696 21 13 21C13.4304 21 13.8126 20.7246 13.9487 20.3162L14.1325 19.7649C14.232 19.4663 14.4663 19.232 14.7649 19.1325L15.3162 18.9487C15.7246 18.8126 16 18.4304 16 18C16 17.5696 15.7246 17.1874 15.3162 17.0513L14.7649 16.8675C14.4663 16.768 14.232 16.5337 14.1325 16.2351L13.9487 15.6838Z" fill="#B8EBFF"/>
<path d="M29.2273 19.1776C28.3987 19.1776 27.6482 18.9645 26.9759 18.5384C26.3082 18.1075 25.7779 17.4754 25.3849 16.642C24.9967 15.804 24.8026 14.7765 24.8026 13.5597C24.8026 12.3097 25.0038 11.2704 25.4062 10.4418C25.8087 9.60843 26.3438 8.9858 27.0114 8.57386C27.6837 8.1572 28.42 7.94886 29.2202 7.94886C29.831 7.94886 30.34 8.05303 30.7472 8.26136C31.1591 8.46496 31.4905 8.72064 31.7415 9.02841C31.9972 9.33144 32.1913 9.62973 32.3239 9.9233H32.4162V4.45455H35.4347V19H32.4517V17.2528H32.3239C32.1818 17.5559 31.9806 17.8565 31.7202 18.1548C31.4645 18.4484 31.1307 18.6922 30.7188 18.8864C30.3116 19.0805 29.8144 19.1776 29.2273 19.1776ZM30.1861 16.7699C30.6738 16.7699 31.0857 16.6373 31.4219 16.3722C31.7628 16.1023 32.0232 15.7259 32.2031 15.2429C32.3878 14.7599 32.4801 14.1941 32.4801 13.5455C32.4801 12.8968 32.3902 12.3333 32.2102 11.8551C32.0303 11.3769 31.7699 11.0076 31.429 10.7472C31.0881 10.4867 30.6738 10.3565 30.1861 10.3565C29.6889 10.3565 29.2699 10.4915 28.929 10.7614C28.5881 11.0312 28.33 11.4053 28.1548 11.8835C27.9796 12.3617 27.892 12.9157 27.892 13.5455C27.892 14.1799 27.9796 14.741 28.1548 15.2287C28.3348 15.7116 28.5928 16.0904 28.929 16.3651C29.2699 16.6349 29.6889 16.7699 30.1861 16.7699ZM41.033 19.206C40.337 19.206 39.7167 19.0852 39.1722 18.8438C38.6277 18.5975 38.1969 18.2353 37.8796 17.7571C37.5671 17.2741 37.4109 16.6728 37.4109 15.9531C37.4109 15.3471 37.5221 14.8381 37.7447 14.4261C37.9672 14.0142 38.2702 13.6828 38.6538 13.4318C39.0373 13.1809 39.4729 12.9915 39.9606 12.8636C40.453 12.7358 40.9691 12.6458 41.5089 12.5938C42.1433 12.5275 42.6547 12.4659 43.043 12.4091C43.4312 12.3475 43.713 12.2576 43.8881 12.1392C44.0633 12.0208 44.1509 11.8456 44.1509 11.6136V11.571C44.1509 11.1212 44.0089 10.7732 43.7248 10.527C43.4454 10.2808 43.0477 10.1577 42.5316 10.1577C41.9871 10.1577 41.5539 10.2784 41.2319 10.5199C40.9099 10.7566 40.6969 11.0549 40.5927 11.4148L37.7944 11.1875C37.9364 10.5246 38.2158 9.9517 38.6325 9.46875C39.0491 8.98106 39.5865 8.60701 40.2447 8.34659C40.9076 8.08144 41.6746 7.94886 42.5458 7.94886C43.1519 7.94886 43.7319 8.01989 44.2859 8.16193C44.8446 8.30398 45.3394 8.52415 45.7702 8.82244C46.2058 9.12074 46.5491 9.50426 46.8001 9.97301C47.051 10.437 47.1765 10.9934 47.1765 11.642V19H44.3072V17.4872H44.2219C44.0468 17.8281 43.8124 18.1288 43.5188 18.3892C43.2253 18.6449 42.8725 18.8461 42.4606 18.9929C42.0487 19.1349 41.5728 19.206 41.033 19.206ZM41.8995 17.1179C42.3446 17.1179 42.7376 17.0303 43.0785 16.8551C43.4194 16.6752 43.6869 16.4337 43.881 16.1307C44.0752 15.8277 44.1722 15.4844 44.1722 15.1009V13.9432C44.0775 14.0047 43.9473 14.0616 43.7816 14.1136C43.6206 14.161 43.4383 14.206 43.2347 14.2486C43.0311 14.2865 42.8275 14.322 42.6239 14.3551C42.4203 14.3835 42.2357 14.4096 42.07 14.4332C41.7148 14.4853 41.4047 14.5682 41.1396 14.6818C40.8744 14.7955 40.6684 14.9493 40.5217 15.1435C40.3749 15.3329 40.3015 15.5696 40.3015 15.8537C40.3015 16.2656 40.4506 16.5805 40.7489 16.7983C41.052 17.0114 41.4355 17.1179 41.8995 17.1179ZM49.5238 19V8.09091H52.5494V19H49.5238ZM51.0437 6.68466C50.5939 6.68466 50.208 6.53551 49.886 6.23722C49.5688 5.93419 49.4102 5.57197 49.4102 5.15057C49.4102 4.7339 49.5688 4.37642 49.886 4.07812C50.208 3.77509 50.5939 3.62358 51.0437 3.62358C51.4935 3.62358 51.877 3.77509 52.1942 4.07812C52.5162 4.37642 52.6772 4.7339 52.6772 5.15057C52.6772 5.57197 52.5162 5.93419 52.1942 6.23722C51.877 6.53551 51.4935 6.68466 51.0437 6.68466ZM57.9986 4.45455V19H54.973V4.45455H57.9986ZM62.2901 23.0909C61.9066 23.0909 61.5468 23.0601 61.2106 22.9986C60.8791 22.9418 60.6045 22.8684 60.3867 22.7784L61.0685 20.5199C61.4237 20.6288 61.7433 20.688 62.0273 20.6974C62.3162 20.7069 62.5647 20.6406 62.7731 20.4986C62.9862 20.3565 63.159 20.1151 63.2915 19.7741L63.4691 19.3125L59.5558 8.09091H62.7376L64.9961 16.1023H65.1097L67.3896 8.09091H70.5927L66.3526 20.179C66.149 20.7661 65.872 21.2775 65.5217 21.7131C65.176 22.1534 64.738 22.492 64.2077 22.7287C63.6774 22.9702 63.0382 23.0909 62.2901 23.0909ZM72.141 19V8.09091H75.0245V10.0156H75.1523C75.3796 9.37642 75.7584 8.87216 76.2887 8.50284C76.819 8.13352 77.4535 7.94886 78.1921 7.94886C78.9402 7.94886 79.5771 8.13589 80.1026 8.50994C80.6282 8.87926 80.9786 9.38116 81.1538 10.0156H81.2674C81.4899 9.39062 81.8924 8.8911 82.4748 8.51705C83.0619 8.13826 83.7556 7.94886 84.5558 7.94886C85.5737 7.94886 86.4 8.2732 87.0344 8.92188C87.6737 9.56581 87.9933 10.4796 87.9933 11.6634V19H84.9748V12.2599C84.9748 11.6539 84.8138 11.1993 84.4918 10.8963C84.1699 10.5933 83.7674 10.4418 83.2844 10.4418C82.7352 10.4418 82.3067 10.617 81.9989 10.9673C81.6912 11.313 81.5373 11.7699 81.5373 12.3381V19H78.604V12.196C78.604 11.661 78.4502 11.2348 78.1424 10.9176C77.8394 10.6004 77.4393 10.4418 76.9421 10.4418C76.6059 10.4418 76.3029 10.527 76.033 10.6974C75.7679 10.8632 75.5572 11.0975 75.4009 11.4006C75.2447 11.6989 75.1665 12.0492 75.1665 12.4517V19H72.141ZM97.3789 14.3551V8.09091H100.404V19H97.4996V17.0185H97.386C97.1398 17.6577 96.7302 18.1714 96.1573 18.5597C95.5891 18.9479 94.8955 19.142 94.0763 19.142C93.3472 19.142 92.7056 18.9763 92.1516 18.6449C91.5977 18.3134 91.1644 17.8423 90.8519 17.2315C90.5442 16.6207 90.3879 15.8892 90.3832 15.0369V8.09091H93.4087V14.4972C93.4135 15.1411 93.5863 15.6501 93.9272 16.0241C94.2681 16.3982 94.725 16.5852 95.2979 16.5852C95.6625 16.5852 96.0034 16.5024 96.3207 16.3366C96.6379 16.1662 96.8936 15.9152 97.0877 15.5838C97.2866 15.2524 97.3836 14.8428 97.3789 14.3551ZM111.901 11.2017L109.131 11.3722C109.084 11.1354 108.982 10.9223 108.826 10.733C108.67 10.5388 108.464 10.3849 108.208 10.2713C107.957 10.1529 107.656 10.0938 107.306 10.0938C106.837 10.0938 106.442 10.1932 106.12 10.392C105.798 10.5862 105.637 10.8466 105.637 11.1733C105.637 11.4337 105.741 11.6539 105.95 11.8338C106.158 12.0137 106.515 12.1581 107.022 12.267L108.996 12.6648C110.057 12.8826 110.848 13.233 111.369 13.7159C111.889 14.1989 112.15 14.8333 112.15 15.6193C112.15 16.3343 111.939 16.9616 111.518 17.5014C111.101 18.0412 110.528 18.4626 109.799 18.7656C109.075 19.0639 108.239 19.2131 107.292 19.2131C105.848 19.2131 104.697 18.9124 103.84 18.3111C102.988 17.705 102.488 16.8812 102.342 15.8395L105.317 15.6832C105.407 16.1236 105.625 16.4598 105.971 16.6918C106.317 16.919 106.759 17.0327 107.299 17.0327C107.829 17.0327 108.255 16.9309 108.577 16.7273C108.904 16.5189 109.07 16.2514 109.075 15.9247C109.07 15.6501 108.954 15.4252 108.727 15.25C108.499 15.0701 108.149 14.9328 107.675 14.8381L105.786 14.4616C104.721 14.2486 103.928 13.8793 103.407 13.3537C102.891 12.8281 102.633 12.1581 102.633 11.3438C102.633 10.643 102.822 10.0393 103.201 9.53267C103.585 9.02604 104.122 8.63542 104.813 8.3608C105.509 8.08617 106.324 7.94886 107.256 7.94886C108.634 7.94886 109.719 8.24006 110.509 8.82244C111.305 9.40483 111.769 10.1979 111.901 11.2017ZM114.055 19V8.09091H117.081V19H114.055ZM115.575 6.68466C115.125 6.68466 114.739 6.53551 114.417 6.23722C114.1 5.93419 113.941 5.57197 113.941 5.15057C113.941 4.7339 114.1 4.37642 114.417 4.07812C114.739 3.77509 115.125 3.62358 115.575 3.62358C116.025 3.62358 116.408 3.77509 116.725 4.07812C117.047 4.37642 117.208 4.7339 117.208 5.15057C117.208 5.57197 117.047 5.93419 116.725 6.23722C116.408 6.53551 116.025 6.68466 115.575 6.68466ZM124.433 19.2131C123.316 19.2131 122.355 18.9763 121.55 18.5028C120.75 18.0246 120.134 17.3617 119.703 16.5142C119.277 15.6667 119.064 14.6913 119.064 13.5881C119.064 12.4706 119.279 11.4905 119.71 10.6477C120.146 9.80019 120.764 9.13968 121.564 8.66619C122.364 8.18797 123.316 7.94886 124.419 7.94886C125.371 7.94886 126.204 8.12169 126.919 8.46733C127.634 8.81297 128.2 9.2983 128.616 9.9233C129.033 10.5483 129.263 11.2822 129.305 12.125H126.45C126.37 11.5805 126.157 11.1425 125.811 10.8111C125.47 10.4749 125.023 10.3068 124.469 10.3068C124 10.3068 123.59 10.4347 123.24 10.6903C122.894 10.9413 122.625 11.3082 122.43 11.7912C122.236 12.2741 122.139 12.8589 122.139 13.5455C122.139 14.2415 122.234 14.8333 122.423 15.321C122.617 15.8087 122.89 16.1804 123.24 16.4361C123.59 16.6918 124 16.8196 124.469 16.8196C124.814 16.8196 125.125 16.7486 125.399 16.6065C125.679 16.4645 125.908 16.2585 126.088 15.9886C126.273 15.714 126.393 15.3849 126.45 15.0014H129.305C129.258 15.8348 129.031 16.5687 128.624 17.2031C128.221 17.8329 127.665 18.3253 126.955 18.6804C126.244 19.0355 125.404 19.2131 124.433 19.2131Z" fill="#B8EBFF"/>
</svg>
