<svg width="127" height="28" viewBox="0 0 127 28" fill="none" xmlns="http://www.w3.org/2000/svg">
<path d="M18.6667 10.5H15.1667V16.9167C15.1667 17.6902 14.8594 18.4321 14.3124 18.9791C13.7654 19.526 13.0235 19.8333 12.25 19.8333C11.4765 19.8333 10.7346 19.526 10.1876 18.9791C9.64062 18.4321 9.33333 17.6902 9.33333 16.9167C9.33333 16.1431 9.64062 15.4013 10.1876 14.8543C10.7346 14.3073 11.4765 14 12.25 14C12.915 14 13.51 14.2217 14 14.5833V8.16667H18.6667M22.1667 3.5H5.83333C5.21449 3.5 4.621 3.74583 4.18342 4.18342C3.74583 4.621 3.5 5.21449 3.5 5.83333V22.1667C3.5 22.7855 3.74583 23.379 4.18342 23.8166C4.621 24.2542 5.21449 24.5 5.83333 24.5H22.1667C22.7855 24.5 23.379 24.2542 23.8166 23.8166C24.2542 23.379 24.5 22.7855 24.5 22.1667V5.83333C24.5 5.21449 24.2542 4.621 23.8166 4.18342C23.379 3.74583 22.7855 3.5 22.1667 3.5Z" fill="#32CBFF"/>
<path d="M37.8324 21.1726C37.0611 21.1726 36.3707 20.9744 35.7614 20.5781C35.152 20.1818 34.6705 19.6065 34.3168 18.8523C33.9631 18.098 33.7862 17.1818 33.7862 16.1037C33.7862 15.0128 33.9652 14.0923 34.3232 13.3423C34.6854 12.5881 35.1733 12.0192 35.7869 11.6357C36.4006 11.2479 37.0845 11.054 37.8388 11.054C38.4141 11.054 38.8871 11.152 39.2578 11.348C39.6286 11.5398 39.9226 11.772 40.1399 12.0447C40.3572 12.3132 40.5256 12.5668 40.6449 12.8054H40.7408V7.90909H43.0611V21H40.7855V19.4531H40.6449C40.5256 19.6918 40.353 19.9453 40.1271 20.2138C39.9013 20.478 39.603 20.7038 39.2322 20.8913C38.8615 21.0788 38.3949 21.1726 37.8324 21.1726ZM38.478 19.2741C38.968 19.2741 39.3857 19.142 39.7308 18.8778C40.076 18.6094 40.3381 18.2365 40.517 17.7592C40.696 17.282 40.7855 16.7259 40.7855 16.0909C40.7855 15.456 40.696 14.9041 40.517 14.4354C40.3423 13.9666 40.0824 13.6023 39.7372 13.3423C39.3963 13.0824 38.9766 12.9524 38.478 12.9524C37.9624 12.9524 37.532 13.0866 37.1868 13.3551C36.8416 13.6236 36.5817 13.9943 36.407 14.4673C36.2322 14.9403 36.1449 15.4815 36.1449 16.0909C36.1449 16.7045 36.2322 17.2521 36.407 17.7337C36.5859 18.2109 36.848 18.5881 37.1932 18.8651C37.5426 19.1378 37.9709 19.2741 38.478 19.2741ZM48.3521 21.1982C47.7299 21.1982 47.1696 21.0874 46.671 20.8658C46.1767 20.6399 45.7846 20.3075 45.4949 19.8686C45.2093 19.4297 45.0666 18.8885 45.0666 18.245C45.0666 17.6911 45.1689 17.233 45.3734 16.8707C45.5779 16.5085 45.8571 16.2188 46.2108 16.0014C46.5645 15.7841 46.9629 15.62 47.4061 15.5092C47.8535 15.3942 48.3159 15.3111 48.7931 15.2599C49.3684 15.2003 49.835 15.147 50.193 15.1001C50.551 15.049 50.8109 14.9723 50.9728 14.87C51.139 14.7635 51.2221 14.5994 51.2221 14.3778V14.3395C51.2221 13.858 51.0794 13.4851 50.7939 13.2209C50.5083 12.9567 50.0971 12.8246 49.5602 12.8246C48.9934 12.8246 48.5439 12.9482 48.2115 13.1953C47.8833 13.4425 47.6618 13.7344 47.5467 14.071L45.3862 13.7642C45.5566 13.1676 45.8379 12.669 46.2299 12.2685C46.622 11.8636 47.1014 11.5611 47.6681 11.3608C48.2349 11.1562 48.8613 11.054 49.5474 11.054C50.0204 11.054 50.4913 11.1094 50.9601 11.2202C51.4288 11.331 51.8571 11.5142 52.2449 11.7699C52.6326 12.0213 52.9437 12.3643 53.1781 12.799C53.4167 13.2337 53.536 13.777 53.536 14.429V21H51.3116V19.6513H51.2349C51.0943 19.924 50.8961 20.1797 50.6404 20.4183C50.389 20.6527 50.0716 20.8423 49.688 20.9872C49.3088 21.1278 48.8635 21.1982 48.3521 21.1982ZM48.9529 19.4979C49.4174 19.4979 49.8201 19.4062 50.161 19.223C50.502 19.0355 50.764 18.7884 50.9473 18.4815C51.1348 18.1747 51.2285 17.8402 51.2285 17.478V16.321C51.1561 16.3807 51.0325 16.4361 50.8578 16.4872C50.6873 16.5384 50.4956 16.5831 50.2825 16.6214C50.0694 16.6598 49.8585 16.6939 49.6497 16.7237C49.4409 16.7536 49.2598 16.7791 49.1064 16.8004C48.7612 16.8473 48.4522 16.924 48.1795 17.0305C47.9068 17.1371 47.6916 17.2862 47.5339 17.478C47.3762 17.6655 47.2974 17.9084 47.2974 18.2067C47.2974 18.6328 47.4529 18.9545 47.764 19.1719C48.0751 19.3892 48.4714 19.4979 48.9529 19.4979ZM55.8627 21V11.1818H58.1767V21H55.8627ZM57.0261 9.78835C56.6596 9.78835 56.3443 9.6669 56.0801 9.42401C55.8159 9.17685 55.6838 8.88068 55.6838 8.53551C55.6838 8.18608 55.8159 7.88991 56.0801 7.64702C56.3443 7.39986 56.6596 7.27628 57.0261 7.27628C57.3968 7.27628 57.7122 7.39986 57.9721 7.64702C58.2363 7.88991 58.3684 8.18608 58.3684 8.53551C58.3684 8.88068 58.2363 9.17685 57.9721 9.42401C57.7122 9.6669 57.3968 9.78835 57.0261 9.78835ZM62.87 7.90909V21H60.5561V7.90909H62.87ZM66.6877 24.6818C66.3723 24.6818 66.0804 24.6563 65.812 24.6051C65.5478 24.5582 65.3368 24.5028 65.1792 24.4389L65.7161 22.6364C66.0527 22.7344 66.3532 22.7813 66.6174 22.777C66.8816 22.7727 67.1138 22.6896 67.3141 22.5277C67.5186 22.37 67.6912 22.1058 67.8319 21.7351L68.03 21.2045L64.4696 11.1818H66.9242L69.187 18.5966H69.2892L71.5584 11.1818H74.0194L70.0882 22.1889C69.905 22.7088 69.6621 23.1541 69.3596 23.5249C69.057 23.8999 68.6863 24.1854 68.2473 24.3814C67.8127 24.5817 67.2928 24.6818 66.6877 24.6818ZM75.6206 21V11.1818H77.8322V12.8501H77.9473C78.1518 12.2876 78.4906 11.8487 78.9636 11.5334C79.4366 11.2138 80.0012 11.054 80.6575 11.054C81.3223 11.054 81.8826 11.2159 82.3386 11.5398C82.7988 11.8594 83.1227 12.2962 83.3102 12.8501H83.4125C83.6298 12.3047 83.9963 11.87 84.5119 11.5462C85.0318 11.218 85.6475 11.054 86.3592 11.054C87.2626 11.054 87.9998 11.3395 88.5708 11.9105C89.1419 12.4815 89.4274 13.3146 89.4274 14.4098V21H87.1071V14.7678C87.1071 14.1584 86.9451 13.7131 86.6213 13.4318C86.2974 13.1463 85.9011 13.0036 85.4324 13.0036C84.8741 13.0036 84.4373 13.1783 84.122 13.5277C83.8109 13.8729 83.6554 14.3224 83.6554 14.8764V21H81.3862V14.6719C81.3862 14.1648 81.2328 13.7599 80.926 13.4574C80.6234 13.1548 80.2271 13.0036 79.737 13.0036C79.4047 13.0036 79.1021 13.0888 78.8294 13.2592C78.5566 13.4254 78.3393 13.6619 78.1774 13.9688C78.0154 14.2713 77.9345 14.625 77.9345 15.0298V21H75.6206ZM98.0327 16.8707V11.1818H100.347V21H98.103V19.255H98.0007C97.7791 19.8047 97.4148 20.2543 96.9077 20.6037C96.4048 20.9531 95.7848 21.1278 95.0476 21.1278C94.4041 21.1278 93.8352 20.9851 93.3409 20.6996C92.8509 20.4098 92.4673 19.9901 92.1903 19.4403C91.9134 18.8864 91.7749 18.2173 91.7749 17.4332V11.1818H94.0888V17.0753C94.0888 17.6974 94.2592 18.1918 94.6001 18.5582C94.9411 18.9247 95.3885 19.108 95.9425 19.108C96.2834 19.108 96.6136 19.0249 96.9332 18.8587C97.2528 18.6925 97.5149 18.4453 97.7195 18.1172C97.9283 17.7848 98.0327 17.3693 98.0327 16.8707ZM110.486 13.777L108.377 14.0071C108.317 13.794 108.213 13.5938 108.063 13.4062C107.919 13.2188 107.722 13.0675 107.475 12.9524C107.228 12.8374 106.926 12.7798 106.568 12.7798C106.086 12.7798 105.681 12.8842 105.353 13.093C105.029 13.3018 104.869 13.5724 104.874 13.9048C104.869 14.1903 104.974 14.4226 105.187 14.6016C105.404 14.7805 105.762 14.9276 106.261 15.0426L107.936 15.4006C108.865 15.6009 109.555 15.9183 110.007 16.353C110.463 16.7876 110.693 17.3565 110.697 18.0597C110.693 18.6776 110.512 19.223 110.154 19.696C109.8 20.1648 109.308 20.5312 108.677 20.7955C108.046 21.0597 107.322 21.1918 106.504 21.1918C105.302 21.1918 104.335 20.9403 103.602 20.4375C102.869 19.9304 102.432 19.2251 102.291 18.3217L104.548 18.1044C104.65 18.5476 104.867 18.8821 105.2 19.108C105.532 19.3338 105.965 19.4467 106.497 19.4467C107.047 19.4467 107.488 19.3338 107.82 19.108C108.157 18.8821 108.325 18.603 108.325 18.2706C108.325 17.9893 108.217 17.7571 107.999 17.5739C107.786 17.3906 107.454 17.25 107.002 17.152L105.328 16.8004C104.386 16.6044 103.689 16.2741 103.237 15.8097C102.786 15.3409 102.562 14.7486 102.566 14.0327C102.562 13.4276 102.726 12.9034 103.058 12.4602C103.395 12.0128 103.862 11.6676 104.458 11.4247C105.059 11.1776 105.752 11.054 106.536 11.054C107.686 11.054 108.592 11.299 109.252 11.7891C109.917 12.2791 110.328 12.9418 110.486 13.777ZM112.605 21V11.1818H114.919V21H112.605ZM113.768 9.78835C113.402 9.78835 113.086 9.6669 112.822 9.42401C112.558 9.17685 112.426 8.88068 112.426 8.53551C112.426 8.18608 112.558 7.88991 112.822 7.64702C113.086 7.39986 113.402 7.27628 113.768 7.27628C114.139 7.27628 114.454 7.39986 114.714 7.64702C114.979 7.88991 115.111 8.18608 115.111 8.53551C115.111 8.88068 114.979 9.17685 114.714 9.42401C114.454 9.6669 114.139 9.78835 113.768 9.78835ZM121.581 21.1918C120.601 21.1918 119.759 20.9766 119.056 20.5462C118.357 20.1158 117.818 19.5213 117.439 18.7628C117.064 18 116.876 17.1222 116.876 16.1293C116.876 15.1321 117.068 14.2521 117.452 13.4893C117.835 12.7223 118.376 12.1257 119.075 11.6996C119.778 11.2692 120.609 11.054 121.568 11.054C122.365 11.054 123.07 11.201 123.684 11.495C124.302 11.7848 124.794 12.196 125.161 12.7287C125.527 13.2571 125.736 13.875 125.787 14.5824H123.575C123.486 14.1094 123.273 13.7152 122.936 13.3999C122.604 13.0803 122.158 12.9205 121.6 12.9205C121.127 12.9205 120.712 13.0483 120.354 13.304C119.996 13.5554 119.717 13.9176 119.516 14.3906C119.32 14.8636 119.222 15.4304 119.222 16.0909C119.222 16.7599 119.32 17.3352 119.516 17.8168C119.712 18.294 119.987 18.6626 120.341 18.9226C120.699 19.1783 121.119 19.3061 121.6 19.3061C121.941 19.3061 122.246 19.2422 122.514 19.1143C122.787 18.9822 123.015 18.7926 123.198 18.5455C123.381 18.2983 123.507 17.9979 123.575 17.6442H125.787C125.732 18.3388 125.527 18.9545 125.173 19.4915C124.82 20.0241 124.338 20.4418 123.729 20.7443C123.119 21.0426 122.403 21.1918 121.581 21.1918Z" fill="#32CBFF"/>
</svg>
